ISO-10303-21;
HEADER;
/* Generated by software containing ST-Developer
 * from STEP Tools, Inc. (www.steptools.com) 
 */

FILE_DESCRIPTION(
/* description */ (''),
/* implementation_level */ '2;1');

FILE_NAME(
/* name */ 'poke-knob.step',
/* time_stamp */ '2026-08-17T20:17:26-07:00',
/* author */ (''),
/* organization */ (''),
/* preprocessor_version */ 'ST-DEVELOPER v20.1',
/* originating_system */ 'Autodesk Translation Framework v15.8.0.0',
/* authorisation */ '');

FILE_SCHEMA (('AUTOMOTIVE_DESIGN { 1 0 10303 214 3 1 1 }'));
ENDSEC;

DATA;
#10=MECHANICAL_DESIGN_GEOMETRIC_PRESENTATION_REPRESENTATION('',(#29),#1132);
#11=ITEM_DEFINED_TRANSFORMATION($,$,#531,#587);
#12=ITEM_DEFINED_TRANSFORMATION($,$,#532,#588);
#13=ITEM_DEFINED_TRANSFORMATION($,$,#533,#589);
#14=ITEM_DEFINED_TRANSFORMATION($,$,#534,#590);
#15=(
REPRESENTATION_RELATIONSHIP($,$,#1152,#1151)
REPRESENTATION_RELATIONSHIP_WITH_TRANSFORMATION(#11)
SHAPE_REPRESENTATION_RELATIONSHIP()
);
#16=(
REPRESENTATION_RELATIONSHIP($,$,#1153,#1151)
REPRESENTATION_RELATIONSHIP_WITH_TRANSFORMATION(#12)
SHAPE_REPRESENTATION_RELATIONSHIP()
);
#17=(
REPRESENTATION_RELATIONSHIP($,$,#1154,#1151)
REPRESENTATION_RELATIONSHIP_WITH_TRANSFORMATION(#13)
SHAPE_REPRESENTATION_RELATIONSHIP()
);
#18=(
REPRESENTATION_RELATIONSHIP($,$,#1155,#1151)
REPRESENTATION_RELATIONSHIP_WITH_TRANSFORMATION(#14)
SHAPE_REPRESENTATION_RELATIONSHIP()
);
#19=CONTEXT_DEPENDENT_SHAPE_REPRESENTATION(#15,#1147);
#20=CONTEXT_DEPENDENT_SHAPE_REPRESENTATION(#16,#1148);
#21=CONTEXT_DEPENDENT_SHAPE_REPRESENTATION(#17,#1149);
#22=CONTEXT_DEPENDENT_SHAPE_REPRESENTATION(#18,#1150);
#23=NEXT_ASSEMBLY_USAGE_OCCURRENCE('Component6:1','Component6:1',
'Component6:1',#1157,#1158,'Component6:1');
#24=NEXT_ASSEMBLY_USAGE_OCCURRENCE('Component5:1','Component5:1',
'Component5:1',#1157,#1159,'Component5:1');
#25=NEXT_ASSEMBLY_USAGE_OCCURRENCE('Component3:1','Component3:1',
'Component3:1',#1157,#1160,'Component3:1');
#26=NEXT_ASSEMBLY_USAGE_OCCURRENCE('Component4:1','Component4:1',
'Component4:1',#1157,#1161,'Component4:1');
#27=SHAPE_REPRESENTATION_RELATIONSHIP('SRR','None',#1155,#28);
#28=ADVANCED_BREP_SHAPE_REPRESENTATION('',(#30),#1131);
#29=STYLED_ITEM('',(#1181),#30);
#30=MANIFOLD_SOLID_BREP('Body1',#484);
#31=FACE_BOUND('',#119,.T.);
#32=FACE_BOUND('',#131,.T.);
#33=FACE_BOUND('',#133,.T.);
#34=CONICAL_SURFACE('',#553,5.1,0.785398163397423);
#35=(
BOUNDED_SURFACE()
B_SPLINE_SURFACE(2,2,((#795,#796,#797,#798,#799),(#800,#801,#802,#803,#804),
(#805,#806,#807,#808,#809)),.UNSPECIFIED.,.F.,.F.,.F.)
B_SPLINE_SURFACE_WITH_KNOTS((3,3),(3,2,3),(-1.27086505704789,1.68399610081704E-15),
(-1.5457937218955,0.,1.5457937218955),.UNSPECIFIED.)
GEOMETRIC_REPRESENTATION_ITEM()
RATIONAL_B_SPLINE_SURFACE(((1.,0.71589105316383,1.,0.71589105316383,1.),
(0.804815054979965,0.576159897311713,0.804815054979965,0.576159897311713,
0.804815054979965),(1.,0.71589105316383,1.,0.71589105316383,1.)))
REPRESENTATION_ITEM('')
SURFACE()
);
#36=(
BOUNDED_SURFACE()
B_SPLINE_SURFACE(2,2,((#931,#932,#933,#934,#935),(#936,#937,#938,#939,#940),
(#941,#942,#943,#944,#945)),.UNSPECIFIED.,.F.,.F.,.F.)
B_SPLINE_SURFACE_WITH_KNOTS((3,3),(3,2,3),(-1.27086505704793,1.39337979599418E-16),
(-1.54579372189557,0.,1.54579372189557),.UNSPECIFIED.)
GEOMETRIC_REPRESENTATION_ITEM()
RATIONAL_B_SPLINE_SURFACE(((1.,0.715891053163805,1.,0.715891053163805,1.),
(0.80481505497995,0.576159897311682,0.80481505497995,0.576159897311682,
0.80481505497995),(1.,0.715891053163805,1.,0.715891053163805,1.)))
REPRESENTATION_ITEM('')
SURFACE()
);
#37=(
BOUNDED_SURFACE()
B_SPLINE_SURFACE(2,2,((#1019,#1020,#1021),(#1022,#1023,#1024),(#1025,#1026,
#1027)),.UNSPECIFIED.,.F.,.F.,.F.)
B_SPLINE_SURFACE_WITH_KNOTS((3,3),(3,3),(-1.89389188966713E-15,1.5707963267949),
(1.51307196720362,1.62852068638601),.UNSPECIFIED.)
GEOMETRIC_REPRESENTATION_ITEM()
RATIONAL_B_SPLINE_SURFACE(((1.,0.998334411724416,1.),(0.70710678118655,
0.70592903242222,0.70710678118655),(1.,0.998334411724416,1.)))
REPRESENTATION_ITEM('')
SURFACE()
);
#38=(
BOUNDED_SURFACE()
B_SPLINE_SURFACE(2,2,((#1044,#1045,#1046),(#1047,#1048,#1049),(#1050,#1051,
#1052)),.UNSPECIFIED.,.F.,.F.,.F.)
B_SPLINE_SURFACE_WITH_KNOTS((3,3),(3,3),(-2.27092406975968E-15,1.5707963267949),
(-1.62852068638601,-1.51307196720362),.UNSPECIFIED.)
GEOMETRIC_REPRESENTATION_ITEM()
RATIONAL_B_SPLINE_SURFACE(((1.,0.998334411724416,1.),(0.707106781186544,
0.705929032422214,0.707106781186544),(1.,0.998334411724416,1.)))
REPRESENTATION_ITEM('')
SURFACE()
);
#39=TOROIDAL_SURFACE('',#539,6.75,0.5);
#40=TOROIDAL_SURFACE('',#548,6.75,0.5);
#41=TOROIDAL_SURFACE('',#571,4.75,0.25);
#42=TOROIDAL_SURFACE('',#580,2.50000000000001,1.);
#43=CIRCLE('',#537,6.25);
#44=CIRCLE('',#538,6.25);
#45=CIRCLE('',#540,6.89772727272729);
#46=CIRCLE('',#541,15.);
#47=CIRCLE('',#546,6.25);
#48=CIRCLE('',#547,6.25);
#49=CIRCLE('',#549,6.89772727272727);
#50=CIRCLE('',#550,15.);
#51=CIRCLE('',#554,5.2);
#52=CIRCLE('',#555,5.);
#53=CIRCLE('',#557,6.5);
#54=CIRCLE('',#558,6.5);
#55=CIRCLE('',#559,15.);
#56=CIRCLE('',#560,15.);
#57=CIRCLE('',#561,15.);
#58=CIRCLE('',#563,15.);
#59=CIRCLE('',#568,3.50000000000001);
#60=CIRCLE('',#570,3.50000000000001);
#61=CIRCLE('',#572,4.75);
#62=CIRCLE('',#573,0.25);
#63=CIRCLE('',#574,5.);
#64=CIRCLE('',#575,5.);
#65=CIRCLE('',#578,3.50000000000001);
#66=CIRCLE('',#581,2.50000000000001);
#67=CIRCLE('',#582,1.);
#68=CIRCLE('',#583,3.50000000000001);
#69=CIRCLE('',#584,3.50000000000001);
#70=CYLINDRICAL_SURFACE('',#536,6.25);
#71=CYLINDRICAL_SURFACE('',#545,6.25);
#72=CYLINDRICAL_SURFACE('',#562,15.);
#73=CYLINDRICAL_SURFACE('',#569,3.50000000000001);
#74=CYLINDRICAL_SURFACE('',#576,5.);
#75=CYLINDRICAL_SURFACE('',#585,3.50000000000001);
#76=FACE_OUTER_BOUND('',#105,.T.);
#77=FACE_OUTER_BOUND('',#106,.T.);
#78=FACE_OUTER_BOUND('',#107,.T.);
#79=FACE_OUTER_BOUND('',#108,.T.);
#80=FACE_OUTER_BOUND('',#109,.T.);
#81=FACE_OUTER_BOUND('',#110,.T.);
#82=FACE_OUTER_BOUND('',#111,.T.);
#83=FACE_OUTER_BOUND('',#112,.T.);
#84=FACE_OUTER_BOUND('',#113,.T.);
#85=FACE_OUTER_BOUND('',#114,.T.);
#86=FACE_OUTER_BOUND('',#115,.T.);
#87=FACE_OUTER_BOUND('',#116,.T.);
#88=FACE_OUTER_BOUND('',#117,.T.);
#89=FACE_OUTER_BOUND('',#118,.T.);
#90=FACE_OUTER_BOUND('',#120,.T.);
#91=FACE_OUTER_BOUND('',#121,.T.);
#92=FACE_OUTER_BOUND('',#122,.T.);
#93=FACE_OUTER_BOUND('',#123,.T.);
#94=FACE_OUTER_BOUND('',#124,.T.);
#95=FACE_OUTER_BOUND('',#125,.T.);
#96=FACE_OUTER_BOUND('',#126,.T.);
#97=FACE_OUTER_BOUND('',#127,.T.);
#98=FACE_OUTER_BOUND('',#128,.T.);
#99=FACE_OUTER_BOUND('',#129,.T.);
#100=FACE_OUTER_BOUND('',#130,.T.);
#101=FACE_OUTER_BOUND('',#132,.T.);
#102=FACE_OUTER_BOUND('',#134,.T.);
#103=FACE_OUTER_BOUND('',#135,.T.);
#104=FACE_OUTER_BOUND('',#136,.T.);
#105=EDGE_LOOP('',(#307,#308,#309,#310,#311));
#106=EDGE_LOOP('',(#312,#313,#314,#315));
#107=EDGE_LOOP('',(#316,#317,#318,#319));
#108=EDGE_LOOP('',(#320,#321,#322,#323,#324,#325));
#109=EDGE_LOOP('',(#326,#327,#328,#329,#330));
#110=EDGE_LOOP('',(#331,#332,#333));
#111=EDGE_LOOP('',(#334,#335,#336,#337,#338));
#112=EDGE_LOOP('',(#339,#340,#341,#342));
#113=EDGE_LOOP('',(#343,#344,#345,#346));
#114=EDGE_LOOP('',(#347,#348,#349,#350,#351,#352));
#115=EDGE_LOOP('',(#353,#354,#355,#356,#357));
#116=EDGE_LOOP('',(#358,#359,#360));
#117=EDGE_LOOP('',(#361,#362,#363,#364));
#118=EDGE_LOOP('',(#365,#366,#367,#368,#369,#370,#371,#372));
#119=EDGE_LOOP('',(#373));
#120=EDGE_LOOP('',(#374,#375,#376,#377,#378,#379));
#121=EDGE_LOOP('',(#380,#381,#382,#383,#384,#385,#386));
#122=EDGE_LOOP('',(#387,#388,#389,#390,#391,#392,#393,#394,#395,#396,#397,
#398));
#123=EDGE_LOOP('',(#399,#400,#401));
#124=EDGE_LOOP('',(#402,#403,#404));
#125=EDGE_LOOP('',(#405,#406,#407,#408));
#126=EDGE_LOOP('',(#409,#410));
#127=EDGE_LOOP('',(#411,#412,#413,#414));
#128=EDGE_LOOP('',(#415,#416,#417,#418,#419));
#129=EDGE_LOOP('',(#420,#421,#422,#423,#424));
#130=EDGE_LOOP('',(#425));
#131=EDGE_LOOP('',(#426));
#132=EDGE_LOOP('',(#427));
#133=EDGE_LOOP('',(#428,#429));
#134=EDGE_LOOP('',(#430,#431,#432,#433,#434));
#135=EDGE_LOOP('',(#435,#436,#437,#438,#439));
#136=EDGE_LOOP('',(#440));
#137=LINE('',#750,#157);
#138=LINE('',#752,#158);
#139=LINE('',#778,#159);
#140=LINE('',#856,#160);
#141=LINE('',#873,#161);
#142=LINE('',#886,#162);
#143=LINE('',#888,#163);
#144=LINE('',#914,#164);
#145=LINE('',#992,#165);
#146=LINE('',#1009,#166);
#147=LINE('',#1014,#167);
#148=LINE('',#1073,#168);
#149=LINE('',#1075,#169);
#150=LINE('',#1076,#170);
#151=LINE('',#1082,#171);
#152=LINE('',#1084,#172);
#153=LINE('',#1086,#173);
#154=LINE('',#1087,#174);
#155=LINE('',#1101,#175);
#156=LINE('',#1115,#176);
#157=VECTOR('',#603,10.);
#158=VECTOR('',#604,10.);
#159=VECTOR('',#609,10.);
#160=VECTOR('',#620,10.);
#161=VECTOR('',#623,10.);
#162=VECTOR('',#626,10.);
#163=VECTOR('',#627,10.);
#164=VECTOR('',#632,10.);
#165=VECTOR('',#643,10.);
#166=VECTOR('',#646,10.);
#167=VECTOR('',#651,5.09999999999992);
#168=VECTOR('',#668,15.);
#169=VECTOR('',#671,10.);
#170=VECTOR('',#672,10.);
#171=VECTOR('',#679,10.);
#172=VECTOR('',#680,10.);
#173=VECTOR('',#681,10.);
#174=VECTOR('',#682,10.);
#175=VECTOR('',#703,5.);
#176=VECTOR('',#722,3.50000000000001);
#177=B_SPLINE_CURVE_WITH_KNOTS('',3,(#741,#742,#743,#744,#745,#746,#747,
#748),.UNSPECIFIED.,.F.,.F.,(4,2,2,4),(4.53609636776655,4.6936802496281,
4.85126413148965,4.91163088034968),.UNSPECIFIED.);
#178=B_SPLINE_CURVE_WITH_KNOTS('',3,(#754,#755,#756,#757,#758,#759,#760,
#761,#762,#763,#764,#765),.UNSPECIFIED.,.F.,.F.,(4,2,2,2,2,4),(0.0600442032979337,
0.0741020186922063,0.0926528772641722,0.111190601020102,0.12970944460045,
0.148211294497177),.UNSPECIFIED.);
#179=B_SPLINE_CURVE_WITH_KNOTS('',3,(#766,#767,#768,#769,#770,#771,#772,
#773),.UNSPECIFIED.,.F.,.F.,(4,2,2,4),(7.12022440983107,7.16843635135259,
7.38131381660976,7.48454425498087),.UNSPECIFIED.);
#180=B_SPLINE_CURVE_WITH_KNOTS('',3,(#782,#783,#784,#785,#786,#787,#788,
#789,#790,#791,#792,#793),.UNSPECIFIED.,.F.,.F.,(4,2,2,2,2,4),(0.148211294497177,
0.166713144393904,0.185231987974252,0.203769711730182,0.222320570302148,
0.23637838569641),.UNSPECIFIED.);
#181=B_SPLINE_CURVE_WITH_KNOTS('',3,(#811,#812,#813,#814,#815,#816,#817,
#818),.UNSPECIFIED.,.F.,.F.,(4,2,2,4),(0.654038270856517,0.757268709227632,
0.970146174484795,1.01835811600634),.UNSPECIFIED.);
#182=B_SPLINE_CURVE_WITH_KNOTS('',3,(#820,#821,#822,#823,#824,#825,#826,
#827,#828,#829,#830,#831),.UNSPECIFIED.,.F.,.F.,(4,2,2,2,2,4),(6.10393689437804,
6.31682632986546,6.52971576535289,6.74263732572416,6.95555888609543,7.12022440983106),
 .UNSPECIFIED.);
#183=B_SPLINE_CURVE_WITH_KNOTS('',3,(#834,#835,#836,#837,#838,#839,#840,
#841,#842,#843,#844,#845),.UNSPECIFIED.,.F.,.F.,(4,2,2,2,2,4),(1.01835811600632,
1.18302363974196,1.39594520011323,1.6088667604845,1.82175619597192,2.03464563145935),
 .UNSPECIFIED.);
#184=B_SPLINE_CURVE_WITH_KNOTS('',3,(#848,#849,#850,#851,#852,#853,#854,
#855),.UNSPECIFIED.,.F.,.F.,(4,2,2,4),(2.81559367392132,2.87596042278134,
3.03354430464289,3.19112818650444),.UNSPECIFIED.);
#185=B_SPLINE_CURVE_WITH_KNOTS('',3,(#859,#860,#861,#862,#863,#864,#865,
#866,#867,#868,#869,#870,#871,#872),.UNSPECIFIED.,.F.,.F.,(4,2,2,2,2,2,
4),(1.93180613856775,2.0891289500895,2.24645176161125,2.40379922093209,
2.56114668025294,2.71855355151714,2.81559367392132),.UNSPECIFIED.);
#186=B_SPLINE_CURVE_WITH_KNOTS('',3,(#877,#878,#879,#880,#881,#882,#883,
#884),.UNSPECIFIED.,.F.,.F.,(4,2,2,4),(4.53609636776673,4.69368024962828,
4.85126413148983,4.91163088034986),.UNSPECIFIED.);
#187=B_SPLINE_CURVE_WITH_KNOTS('',3,(#890,#891,#892,#893,#894,#895,#896,
#897,#898,#899,#900,#901),.UNSPECIFIED.,.F.,.F.,(4,2,2,2,2,4),(0.0600442032979753,
0.0741020186922041,0.0926528772641698,0.111190601020102,0.129709444600448,
0.148211294497176),.UNSPECIFIED.);
#188=B_SPLINE_CURVE_WITH_KNOTS('',3,(#902,#903,#904,#905,#906,#907,#908,
#909),.UNSPECIFIED.,.F.,.F.,(4,2,2,4),(7.12021673098466,7.1682193014267,
7.38116902279539,7.48454299115432),.UNSPECIFIED.);
#189=B_SPLINE_CURVE_WITH_KNOTS('',3,(#918,#919,#920,#921,#922,#923,#924,
#925,#926,#927,#928,#929),.UNSPECIFIED.,.F.,.F.,(4,2,2,2,2,4),(0.148211295067224,
0.166713144963952,0.1852319885443,0.20376971230023,0.222320570872195,0.236378386266425),
 .UNSPECIFIED.);
#190=B_SPLINE_CURVE_WITH_KNOTS('',3,(#947,#948,#949,#950,#951,#952,#953,
#954),.UNSPECIFIED.,.F.,.F.,(4,2,2,4),(0.654039536834074,0.757413505193004,
0.970363226561693,1.01836579700371),.UNSPECIFIED.);
#191=B_SPLINE_CURVE_WITH_KNOTS('',3,(#956,#957,#958,#959,#960,#961,#962,
#963,#964,#965,#966,#967),.UNSPECIFIED.,.F.,.F.,(4,2,2,2,2,4),(6.10393689599131,
6.31675402361233,6.52957115123336,6.74242036564569,6.95526958005802,7.12021673098468),
 .UNSPECIFIED.);
#192=B_SPLINE_CURVE_WITH_KNOTS('',3,(#970,#971,#972,#973,#974,#975,#976,
#977,#978,#979,#980,#981),.UNSPECIFIED.,.F.,.F.,(4,2,2,2,2,4),(1.01836579700374,
1.18331294793038,1.39616216234271,1.60901137675504,1.82182850437607,2.0346456319971),
 .UNSPECIFIED.);
#193=B_SPLINE_CURVE_WITH_KNOTS('',3,(#984,#985,#986,#987,#988,#989,#990,
#991),.UNSPECIFIED.,.F.,.F.,(4,2,2,4),(2.81559367392138,2.87596042278139,
3.03354430464294,3.1911281865045),.UNSPECIFIED.);
#194=B_SPLINE_CURVE_WITH_KNOTS('',3,(#995,#996,#997,#998,#999,#1000,#1001,
#1002,#1003,#1004,#1005,#1006,#1007,#1008),.UNSPECIFIED.,.F.,.F.,(4,2,2,
2,2,2,4),(1.9318061385678,2.08912895008956,2.24645176161131,2.40379922093215,
2.56114668025299,2.71855355151719,2.81559367392138),.UNSPECIFIED.);
#195=B_SPLINE_CURVE_WITH_KNOTS('',3,(#1029,#1030,#1031,#1032,#1033,#1034,
#1035,#1036,#1037,#1038,#1039,#1040,#1041,#1042),.UNSPECIFIED.,.F.,.F.,
(4,2,2,2,2,2,4),(4.91163088034968,5.00867100275385,5.16607787401805,5.3234253333389,
5.48077279265974,5.63809560418149,5.79541841570324),.UNSPECIFIED.);
#196=B_SPLINE_CURVE_WITH_KNOTS('',3,(#1054,#1055,#1056,#1057,#1058,#1059,
#1060,#1061,#1062,#1063,#1064,#1065,#1066,#1067),.UNSPECIFIED.,.F.,.F.,
(4,2,2,2,2,2,4),(4.91163088034986,5.00867100275403,5.16607787401823,5.32342533333907,
5.48077279265992,5.63809560418167,5.79541841570342),.UNSPECIFIED.);
#197=VERTEX_POINT('',#739);
#198=VERTEX_POINT('',#740);
#199=VERTEX_POINT('',#749);
#200=VERTEX_POINT('',#751);
#201=VERTEX_POINT('',#753);
#202=VERTEX_POINT('',#775);
#203=VERTEX_POINT('',#777);
#204=VERTEX_POINT('',#781);
#205=VERTEX_POINT('',#810);
#206=VERTEX_POINT('',#819);
#207=VERTEX_POINT('',#832);
#208=VERTEX_POINT('',#847);
#209=VERTEX_POINT('',#858);
#210=VERTEX_POINT('',#875);
#211=VERTEX_POINT('',#876);
#212=VERTEX_POINT('',#885);
#213=VERTEX_POINT('',#887);
#214=VERTEX_POINT('',#889);
#215=VERTEX_POINT('',#911);
#216=VERTEX_POINT('',#913);
#217=VERTEX_POINT('',#917);
#218=VERTEX_POINT('',#946);
#219=VERTEX_POINT('',#955);
#220=VERTEX_POINT('',#968);
#221=VERTEX_POINT('',#983);
#222=VERTEX_POINT('',#994);
#223=VERTEX_POINT('',#1011);
#224=VERTEX_POINT('',#1013);
#225=VERTEX_POINT('',#1028);
#226=VERTEX_POINT('',#1053);
#227=VERTEX_POINT('',#1068);
#228=VERTEX_POINT('',#1072);
#229=VERTEX_POINT('',#1080);
#230=VERTEX_POINT('',#1081);
#231=VERTEX_POINT('',#1083);
#232=VERTEX_POINT('',#1085);
#233=VERTEX_POINT('',#1093);
#234=VERTEX_POINT('',#1095);
#235=VERTEX_POINT('',#1097);
#236=VERTEX_POINT('',#1103);
#237=VERTEX_POINT('',#1107);
#238=VERTEX_POINT('',#1109);
#239=VERTEX_POINT('',#1111);
#240=EDGE_CURVE('',#197,#198,#177,.T.);
#241=EDGE_CURVE('',#199,#197,#137,.T.);
#242=EDGE_CURVE('',#199,#200,#138,.T.);
#243=EDGE_CURVE('',#201,#200,#178,.T.);
#244=EDGE_CURVE('',#198,#201,#179,.T.);
#245=EDGE_CURVE('',#202,#199,#43,.T.);
#246=EDGE_CURVE('',#202,#203,#139,.T.);
#247=EDGE_CURVE('',#200,#203,#44,.T.);
#248=EDGE_CURVE('',#203,#204,#180,.T.);
#249=EDGE_CURVE('',#204,#201,#45,.T.);
#250=EDGE_CURVE('',#204,#205,#181,.T.);
#251=EDGE_CURVE('',#206,#205,#182,.T.);
#252=EDGE_CURVE('',#206,#207,#46,.T.);
#253=EDGE_CURVE('',#198,#207,#183,.T.);
#254=EDGE_CURVE('',#205,#208,#184,.T.);
#255=EDGE_CURVE('',#208,#202,#140,.T.);
#256=EDGE_CURVE('',#209,#205,#185,.T.);
#257=EDGE_CURVE('',#206,#209,#141,.T.);
#258=EDGE_CURVE('',#210,#211,#186,.T.);
#259=EDGE_CURVE('',#212,#210,#142,.T.);
#260=EDGE_CURVE('',#212,#213,#143,.T.);
#261=EDGE_CURVE('',#214,#213,#187,.T.);
#262=EDGE_CURVE('',#211,#214,#188,.T.);
#263=EDGE_CURVE('',#215,#212,#47,.T.);
#264=EDGE_CURVE('',#215,#216,#144,.T.);
#265=EDGE_CURVE('',#213,#216,#48,.T.);
#266=EDGE_CURVE('',#216,#217,#189,.T.);
#267=EDGE_CURVE('',#217,#214,#49,.T.);
#268=EDGE_CURVE('',#217,#218,#190,.T.);
#269=EDGE_CURVE('',#219,#218,#191,.T.);
#270=EDGE_CURVE('',#219,#220,#50,.T.);
#271=EDGE_CURVE('',#211,#220,#192,.T.);
#272=EDGE_CURVE('',#218,#221,#193,.T.);
#273=EDGE_CURVE('',#221,#215,#145,.T.);
#274=EDGE_CURVE('',#222,#218,#194,.T.);
#275=EDGE_CURVE('',#219,#222,#146,.T.);
#276=EDGE_CURVE('',#223,#223,#51,.T.);
#277=EDGE_CURVE('',#223,#224,#147,.T.);
#278=EDGE_CURVE('',#224,#224,#52,.T.);
#279=EDGE_CURVE('',#221,#197,#53,.T.);
#280=EDGE_CURVE('',#208,#210,#54,.T.);
#281=EDGE_CURVE('',#198,#225,#195,.T.);
#282=EDGE_CURVE('',#225,#222,#55,.T.);
#283=EDGE_CURVE('',#211,#226,#196,.T.);
#284=EDGE_CURVE('',#226,#227,#56,.T.);
#285=EDGE_CURVE('',#227,#209,#57,.T.);
#286=EDGE_CURVE('',#227,#228,#148,.T.);
#287=EDGE_CURVE('',#228,#228,#58,.T.);
#288=EDGE_CURVE('',#220,#226,#149,.T.);
#289=EDGE_CURVE('',#207,#225,#150,.T.);
#290=EDGE_CURVE('',#229,#230,#151,.T.);
#291=EDGE_CURVE('',#231,#229,#152,.T.);
#292=EDGE_CURVE('',#232,#231,#153,.T.);
#293=EDGE_CURVE('',#230,#232,#154,.T.);
#294=EDGE_CURVE('',#232,#231,#59,.T.);
#295=EDGE_CURVE('',#230,#229,#60,.T.);
#296=EDGE_CURVE('',#233,#233,#61,.T.);
#297=EDGE_CURVE('',#233,#234,#62,.T.);
#298=EDGE_CURVE('',#234,#235,#63,.T.);
#299=EDGE_CURVE('',#235,#234,#64,.T.);
#300=EDGE_CURVE('',#235,#224,#155,.T.);
#301=EDGE_CURVE('',#236,#236,#65,.T.);
#302=EDGE_CURVE('',#237,#237,#66,.T.);
#303=EDGE_CURVE('',#237,#238,#67,.T.);
#304=EDGE_CURVE('',#238,#239,#68,.T.);
#305=EDGE_CURVE('',#239,#238,#69,.T.);
#306=EDGE_CURVE('',#239,#236,#156,.T.);
#307=ORIENTED_EDGE('',*,*,#240,.F.);
#308=ORIENTED_EDGE('',*,*,#241,.F.);
#309=ORIENTED_EDGE('',*,*,#242,.T.);
#310=ORIENTED_EDGE('',*,*,#243,.F.);
#311=ORIENTED_EDGE('',*,*,#244,.F.);
#312=ORIENTED_EDGE('',*,*,#245,.F.);
#313=ORIENTED_EDGE('',*,*,#246,.T.);
#314=ORIENTED_EDGE('',*,*,#247,.F.);
#315=ORIENTED_EDGE('',*,*,#242,.F.);
#316=ORIENTED_EDGE('',*,*,#248,.T.);
#317=ORIENTED_EDGE('',*,*,#249,.T.);
#318=ORIENTED_EDGE('',*,*,#243,.T.);
#319=ORIENTED_EDGE('',*,*,#247,.T.);
#320=ORIENTED_EDGE('',*,*,#249,.F.);
#321=ORIENTED_EDGE('',*,*,#250,.T.);
#322=ORIENTED_EDGE('',*,*,#251,.F.);
#323=ORIENTED_EDGE('',*,*,#252,.T.);
#324=ORIENTED_EDGE('',*,*,#253,.F.);
#325=ORIENTED_EDGE('',*,*,#244,.T.);
#326=ORIENTED_EDGE('',*,*,#254,.F.);
#327=ORIENTED_EDGE('',*,*,#250,.F.);
#328=ORIENTED_EDGE('',*,*,#248,.F.);
#329=ORIENTED_EDGE('',*,*,#246,.F.);
#330=ORIENTED_EDGE('',*,*,#255,.F.);
#331=ORIENTED_EDGE('',*,*,#251,.T.);
#332=ORIENTED_EDGE('',*,*,#256,.F.);
#333=ORIENTED_EDGE('',*,*,#257,.F.);
#334=ORIENTED_EDGE('',*,*,#258,.F.);
#335=ORIENTED_EDGE('',*,*,#259,.F.);
#336=ORIENTED_EDGE('',*,*,#260,.T.);
#337=ORIENTED_EDGE('',*,*,#261,.F.);
#338=ORIENTED_EDGE('',*,*,#262,.F.);
#339=ORIENTED_EDGE('',*,*,#263,.F.);
#340=ORIENTED_EDGE('',*,*,#264,.T.);
#341=ORIENTED_EDGE('',*,*,#265,.F.);
#342=ORIENTED_EDGE('',*,*,#260,.F.);
#343=ORIENTED_EDGE('',*,*,#266,.T.);
#344=ORIENTED_EDGE('',*,*,#267,.T.);
#345=ORIENTED_EDGE('',*,*,#261,.T.);
#346=ORIENTED_EDGE('',*,*,#265,.T.);
#347=ORIENTED_EDGE('',*,*,#267,.F.);
#348=ORIENTED_EDGE('',*,*,#268,.T.);
#349=ORIENTED_EDGE('',*,*,#269,.F.);
#350=ORIENTED_EDGE('',*,*,#270,.T.);
#351=ORIENTED_EDGE('',*,*,#271,.F.);
#352=ORIENTED_EDGE('',*,*,#262,.T.);
#353=ORIENTED_EDGE('',*,*,#272,.F.);
#354=ORIENTED_EDGE('',*,*,#268,.F.);
#355=ORIENTED_EDGE('',*,*,#266,.F.);
#356=ORIENTED_EDGE('',*,*,#264,.F.);
#357=ORIENTED_EDGE('',*,*,#273,.F.);
#358=ORIENTED_EDGE('',*,*,#269,.T.);
#359=ORIENTED_EDGE('',*,*,#274,.F.);
#360=ORIENTED_EDGE('',*,*,#275,.F.);
#361=ORIENTED_EDGE('',*,*,#276,.T.);
#362=ORIENTED_EDGE('',*,*,#277,.T.);
#363=ORIENTED_EDGE('',*,*,#278,.F.);
#364=ORIENTED_EDGE('',*,*,#277,.F.);
#365=ORIENTED_EDGE('',*,*,#279,.F.);
#366=ORIENTED_EDGE('',*,*,#273,.T.);
#367=ORIENTED_EDGE('',*,*,#263,.T.);
#368=ORIENTED_EDGE('',*,*,#259,.T.);
#369=ORIENTED_EDGE('',*,*,#280,.F.);
#370=ORIENTED_EDGE('',*,*,#255,.T.);
#371=ORIENTED_EDGE('',*,*,#245,.T.);
#372=ORIENTED_EDGE('',*,*,#241,.T.);
#373=ORIENTED_EDGE('',*,*,#276,.F.);
#374=ORIENTED_EDGE('',*,*,#274,.T.);
#375=ORIENTED_EDGE('',*,*,#272,.T.);
#376=ORIENTED_EDGE('',*,*,#279,.T.);
#377=ORIENTED_EDGE('',*,*,#240,.T.);
#378=ORIENTED_EDGE('',*,*,#281,.T.);
#379=ORIENTED_EDGE('',*,*,#282,.T.);
#380=ORIENTED_EDGE('',*,*,#256,.T.);
#381=ORIENTED_EDGE('',*,*,#254,.T.);
#382=ORIENTED_EDGE('',*,*,#280,.T.);
#383=ORIENTED_EDGE('',*,*,#258,.T.);
#384=ORIENTED_EDGE('',*,*,#283,.T.);
#385=ORIENTED_EDGE('',*,*,#284,.T.);
#386=ORIENTED_EDGE('',*,*,#285,.T.);
#387=ORIENTED_EDGE('',*,*,#252,.F.);
#388=ORIENTED_EDGE('',*,*,#257,.T.);
#389=ORIENTED_EDGE('',*,*,#285,.F.);
#390=ORIENTED_EDGE('',*,*,#286,.T.);
#391=ORIENTED_EDGE('',*,*,#287,.F.);
#392=ORIENTED_EDGE('',*,*,#286,.F.);
#393=ORIENTED_EDGE('',*,*,#284,.F.);
#394=ORIENTED_EDGE('',*,*,#288,.F.);
#395=ORIENTED_EDGE('',*,*,#270,.F.);
#396=ORIENTED_EDGE('',*,*,#275,.T.);
#397=ORIENTED_EDGE('',*,*,#282,.F.);
#398=ORIENTED_EDGE('',*,*,#289,.F.);
#399=ORIENTED_EDGE('',*,*,#271,.T.);
#400=ORIENTED_EDGE('',*,*,#288,.T.);
#401=ORIENTED_EDGE('',*,*,#283,.F.);
#402=ORIENTED_EDGE('',*,*,#253,.T.);
#403=ORIENTED_EDGE('',*,*,#289,.T.);
#404=ORIENTED_EDGE('',*,*,#281,.F.);
#405=ORIENTED_EDGE('',*,*,#290,.F.);
#406=ORIENTED_EDGE('',*,*,#291,.F.);
#407=ORIENTED_EDGE('',*,*,#292,.F.);
#408=ORIENTED_EDGE('',*,*,#293,.F.);
#409=ORIENTED_EDGE('',*,*,#292,.T.);
#410=ORIENTED_EDGE('',*,*,#294,.F.);
#411=ORIENTED_EDGE('',*,*,#293,.T.);
#412=ORIENTED_EDGE('',*,*,#294,.T.);
#413=ORIENTED_EDGE('',*,*,#291,.T.);
#414=ORIENTED_EDGE('',*,*,#295,.F.);
#415=ORIENTED_EDGE('',*,*,#296,.T.);
#416=ORIENTED_EDGE('',*,*,#297,.T.);
#417=ORIENTED_EDGE('',*,*,#298,.T.);
#418=ORIENTED_EDGE('',*,*,#299,.T.);
#419=ORIENTED_EDGE('',*,*,#297,.F.);
#420=ORIENTED_EDGE('',*,*,#299,.F.);
#421=ORIENTED_EDGE('',*,*,#300,.T.);
#422=ORIENTED_EDGE('',*,*,#278,.T.);
#423=ORIENTED_EDGE('',*,*,#300,.F.);
#424=ORIENTED_EDGE('',*,*,#298,.F.);
#425=ORIENTED_EDGE('',*,*,#296,.F.);
#426=ORIENTED_EDGE('',*,*,#301,.F.);
#427=ORIENTED_EDGE('',*,*,#287,.T.);
#428=ORIENTED_EDGE('',*,*,#295,.T.);
#429=ORIENTED_EDGE('',*,*,#290,.T.);
#430=ORIENTED_EDGE('',*,*,#302,.T.);
#431=ORIENTED_EDGE('',*,*,#303,.T.);
#432=ORIENTED_EDGE('',*,*,#304,.T.);
#433=ORIENTED_EDGE('',*,*,#305,.T.);
#434=ORIENTED_EDGE('',*,*,#303,.F.);
#435=ORIENTED_EDGE('',*,*,#305,.F.);
#436=ORIENTED_EDGE('',*,*,#306,.T.);
#437=ORIENTED_EDGE('',*,*,#301,.T.);
#438=ORIENTED_EDGE('',*,*,#306,.F.);
#439=ORIENTED_EDGE('',*,*,#304,.F.);
#440=ORIENTED_EDGE('',*,*,#302,.F.);
#441=PLANE('',#535);
#442=PLANE('',#542);
#443=PLANE('',#543);
#444=PLANE('',#544);
#445=PLANE('',#551);
#446=PLANE('',#552);
#447=PLANE('',#556);
#448=PLANE('',#564);
#449=PLANE('',#565);
#450=PLANE('',#566);
#451=PLANE('',#567);
#452=PLANE('',#577);
#453=PLANE('',#579);
#454=PLANE('',#586);
#455=ADVANCED_FACE('',(#76),#441,.T.);
#456=ADVANCED_FACE('',(#77),#70,.F.);
#457=ADVANCED_FACE('',(#78),#39,.T.);
#458=ADVANCED_FACE('',(#79),#35,.T.);
#459=ADVANCED_FACE('',(#80),#442,.T.);
#460=ADVANCED_FACE('',(#81),#443,.T.);
#461=ADVANCED_FACE('',(#82),#444,.T.);
#462=ADVANCED_FACE('',(#83),#71,.F.);
#463=ADVANCED_FACE('',(#84),#40,.T.);
#464=ADVANCED_FACE('',(#85),#36,.T.);
#465=ADVANCED_FACE('',(#86),#445,.T.);
#466=ADVANCED_FACE('',(#87),#446,.T.);
#467=ADVANCED_FACE('',(#88),#34,.F.);
#468=ADVANCED_FACE('',(#89,#31),#447,.F.);
#469=ADVANCED_FACE('',(#90),#37,.F.);
#470=ADVANCED_FACE('',(#91),#38,.F.);
#471=ADVANCED_FACE('',(#92),#72,.T.);
#472=ADVANCED_FACE('',(#93),#448,.T.);
#473=ADVANCED_FACE('',(#94),#449,.T.);
#474=ADVANCED_FACE('',(#95),#450,.T.);
#475=ADVANCED_FACE('',(#96),#451,.F.);
#476=ADVANCED_FACE('',(#97),#73,.F.);
#477=ADVANCED_FACE('',(#98),#41,.T.);
#478=ADVANCED_FACE('',(#99),#74,.T.);
#479=ADVANCED_FACE('',(#100,#32),#452,.F.);
#480=ADVANCED_FACE('',(#101,#33),#453,.T.);
#481=ADVANCED_FACE('',(#102),#42,.T.);
#482=ADVANCED_FACE('',(#103),#75,.T.);
#483=ADVANCED_FACE('',(#104),#454,.T.);
#484=CLOSED_SHELL('',(#455,#456,#457,#458,#459,#460,#461,#462,#463,#464,
#465,#466,#467,#468,#469,#470,#471,#472,#473,#474,#475,#476,#477,#478,#479,
#480,#481,#482,#483));
#485=DERIVED_UNIT_ELEMENT(#493,1.);
#486=DERIVED_UNIT_ELEMENT(#1134,-3.);
#487=DERIVED_UNIT_ELEMENT(#493,1.);
#488=DERIVED_UNIT_ELEMENT(#1134,-3.);
#489=DERIVED_UNIT_ELEMENT(#493,1.);
#490=DERIVED_UNIT_ELEMENT(#1134,-3.);
#491=DERIVED_UNIT_ELEMENT(#493,1.);
#492=DERIVED_UNIT_ELEMENT(#1134,-3.);
#493=(
MASS_UNIT()
NAMED_UNIT(*)
SI_UNIT(.KILO.,.GRAM.)
);
#494=DERIVED_UNIT((#485,#486));
#495=DERIVED_UNIT((#487,#488));
#496=DERIVED_UNIT((#489,#490));
#497=DERIVED_UNIT((#491,#492));
#498=MEASURE_REPRESENTATION_ITEM('density measure',
POSITIVE_RATIO_MEASURE(7850.),#494);
#499=MEASURE_REPRESENTATION_ITEM('density measure',
POSITIVE_RATIO_MEASURE(7850.),#495);
#500=MEASURE_REPRESENTATION_ITEM('density measure',
POSITIVE_RATIO_MEASURE(7850.),#496);
#501=MEASURE_REPRESENTATION_ITEM('density measure',
POSITIVE_RATIO_MEASURE(7850.),#497);
#502=PROPERTY_DEFINITION_REPRESENTATION(#522,#510);
#503=PROPERTY_DEFINITION_REPRESENTATION(#523,#511);
#504=PROPERTY_DEFINITION_REPRESENTATION(#524,#512);
#505=PROPERTY_DEFINITION_REPRESENTATION(#525,#513);
#506=PROPERTY_DEFINITION_REPRESENTATION(#526,#514);
#507=PROPERTY_DEFINITION_REPRESENTATION(#527,#515);
#508=PROPERTY_DEFINITION_REPRESENTATION(#528,#516);
#509=PROPERTY_DEFINITION_REPRESENTATION(#529,#517);
#510=REPRESENTATION('material name',(#518),#1128);
#511=REPRESENTATION('density',(#498),#1128);
#512=REPRESENTATION('material name',(#519),#1129);
#513=REPRESENTATION('density',(#499),#1129);
#514=REPRESENTATION('material name',(#520),#1130);
#515=REPRESENTATION('density',(#500),#1130);
#516=REPRESENTATION('material name',(#521),#1131);
#517=REPRESENTATION('density',(#501),#1131);
#518=DESCRIPTIVE_REPRESENTATION_ITEM('Steel','Steel');
#519=DESCRIPTIVE_REPRESENTATION_ITEM('Steel','Steel');
#520=DESCRIPTIVE_REPRESENTATION_ITEM('Steel','Steel');
#521=DESCRIPTIVE_REPRESENTATION_ITEM('Steel','Steel');
#522=PROPERTY_DEFINITION('material property','material name',#1158);
#523=PROPERTY_DEFINITION('material property','density of part',#1158);
#524=PROPERTY_DEFINITION('material property','material name',#1159);
#525=PROPERTY_DEFINITION('material property','density of part',#1159);
#526=PROPERTY_DEFINITION('material property','material name',#1160);
#527=PROPERTY_DEFINITION('material property','density of part',#1160);
#528=PROPERTY_DEFINITION('material property','material name',#1161);
#529=PROPERTY_DEFINITION('material property','density of part',#1161);
#530=AXIS2_PLACEMENT_3D('',#733,#591,#592);
#531=AXIS2_PLACEMENT_3D('',#734,#593,#594);
#532=AXIS2_PLACEMENT_3D('',#735,#595,#596);
#533=AXIS2_PLACEMENT_3D('',#736,#597,#598);
#534=AXIS2_PLACEMENT_3D('',#737,#599,#600);
#535=AXIS2_PLACEMENT_3D('',#738,#601,#602);
#536=AXIS2_PLACEMENT_3D('',#774,#605,#606);
#537=AXIS2_PLACEMENT_3D('',#776,#607,#608);
#538=AXIS2_PLACEMENT_3D('',#779,#610,#611);
#539=AXIS2_PLACEMENT_3D('',#780,#612,#613);
#540=AXIS2_PLACEMENT_3D('',#794,#614,#615);
#541=AXIS2_PLACEMENT_3D('',#833,#616,#617);
#542=AXIS2_PLACEMENT_3D('',#846,#618,#619);
#543=AXIS2_PLACEMENT_3D('',#857,#621,#622);
#544=AXIS2_PLACEMENT_3D('',#874,#624,#625);
#545=AXIS2_PLACEMENT_3D('',#910,#628,#629);
#546=AXIS2_PLACEMENT_3D('',#912,#630,#631);
#547=AXIS2_PLACEMENT_3D('',#915,#633,#634);
#548=AXIS2_PLACEMENT_3D('',#916,#635,#636);
#549=AXIS2_PLACEMENT_3D('',#930,#637,#638);
#550=AXIS2_PLACEMENT_3D('',#969,#639,#640);
#551=AXIS2_PLACEMENT_3D('',#982,#641,#642);
#552=AXIS2_PLACEMENT_3D('',#993,#644,#645);
#553=AXIS2_PLACEMENT_3D('',#1010,#647,#648);
#554=AXIS2_PLACEMENT_3D('',#1012,#649,#650);
#555=AXIS2_PLACEMENT_3D('',#1015,#652,#653);
#556=AXIS2_PLACEMENT_3D('',#1016,#654,#655);
#557=AXIS2_PLACEMENT_3D('',#1017,#656,#657);
#558=AXIS2_PLACEMENT_3D('',#1018,#658,#659);
#559=AXIS2_PLACEMENT_3D('',#1043,#660,#661);
#560=AXIS2_PLACEMENT_3D('',#1069,#662,#663);
#561=AXIS2_PLACEMENT_3D('',#1070,#664,#665);
#562=AXIS2_PLACEMENT_3D('',#1071,#666,#667);
#563=AXIS2_PLACEMENT_3D('',#1074,#669,#670);
#564=AXIS2_PLACEMENT_3D('',#1077,#673,#674);
#565=AXIS2_PLACEMENT_3D('',#1078,#675,#676);
#566=AXIS2_PLACEMENT_3D('',#1079,#677,#678);
#567=AXIS2_PLACEMENT_3D('',#1088,#683,#684);
#568=AXIS2_PLACEMENT_3D('',#1089,#685,#686);
#569=AXIS2_PLACEMENT_3D('',#1090,#687,#688);
#570=AXIS2_PLACEMENT_3D('',#1091,#689,#690);
#571=AXIS2_PLACEMENT_3D('',#1092,#691,#692);
#572=AXIS2_PLACEMENT_3D('',#1094,#693,#694);
#573=AXIS2_PLACEMENT_3D('',#1096,#695,#696);
#574=AXIS2_PLACEMENT_3D('',#1098,#697,#698);
#575=AXIS2_PLACEMENT_3D('',#1099,#699,#700);
#576=AXIS2_PLACEMENT_3D('',#1100,#701,#702);
#577=AXIS2_PLACEMENT_3D('',#1102,#704,#705);
#578=AXIS2_PLACEMENT_3D('',#1104,#706,#707);
#579=AXIS2_PLACEMENT_3D('',#1105,#708,#709);
#580=AXIS2_PLACEMENT_3D('',#1106,#710,#711);
#581=AXIS2_PLACEMENT_3D('',#1108,#712,#713);
#582=AXIS2_PLACEMENT_3D('',#1110,#714,#715);
#583=AXIS2_PLACEMENT_3D('',#1112,#716,#717);
#584=AXIS2_PLACEMENT_3D('',#1113,#718,#719);
#585=AXIS2_PLACEMENT_3D('',#1114,#720,#721);
#586=AXIS2_PLACEMENT_3D('',#1116,#723,#724);
#587=AXIS2_PLACEMENT_3D('',#1117,#725,#726);
#588=AXIS2_PLACEMENT_3D('',#1118,#727,#728);
#589=AXIS2_PLACEMENT_3D('',#1119,#729,#730);
#590=AXIS2_PLACEMENT_3D('',#1120,#731,#732);
#591=DIRECTION('axis',(0.,0.,1.));
#592=DIRECTION('refdir',(1.,0.,0.));
#593=DIRECTION('axis',(0.,0.,1.));
#594=DIRECTION('refdir',(1.,0.,0.));
#595=DIRECTION('axis',(0.,0.,1.));
#596=DIRECTION('refdir',(1.,0.,0.));
#597=DIRECTION('axis',(0.,0.,1.));
#598=DIRECTION('refdir',(1.,0.,0.));
#599=DIRECTION('axis',(0.,0.,1.));
#600=DIRECTION('refdir',(1.,0.,0.));
#601=DIRECTION('center_axis',(4.93038065763132E-32,1.16774872027068E-46,
-1.));
#602=DIRECTION('ref_axis',(-1.,-1.3739009929736E-15,-4.93038065763132E-32));
#603=DIRECTION('',(1.,1.3739009929736E-15,4.93038065763132E-32));
#604=DIRECTION('',(-2.368475785867E-15,1.,0.));
#605=DIRECTION('center_axis',(-2.368475785867E-15,1.,0.));
#606=DIRECTION('ref_axis',(1.,2.368475785867E-15,4.93038065763132E-32));
#607=DIRECTION('center_axis',(-1.3739009929736E-15,1.,-1.68268177169751E-16));
#608=DIRECTION('ref_axis',(1.,1.3739009929736E-15,4.93038065763132E-32));
#609=DIRECTION('',(-2.368475785867E-15,1.,0.));
#610=DIRECTION('center_axis',(2.368475785867E-15,-1.,0.));
#611=DIRECTION('ref_axis',(5.93347936750274E-15,0.,1.));
#612=DIRECTION('center_axis',(2.368475785867E-15,-1.,0.));
#613=DIRECTION('ref_axis',(0.,0.,1.));
#614=DIRECTION('center_axis',(-2.368475785867E-15,1.,0.));
#615=DIRECTION('ref_axis',(0.,0.,1.));
#616=DIRECTION('center_axis',(-1.37390099297361E-15,1.,0.));
#617=DIRECTION('ref_axis',(0.,0.,-1.));
#618=DIRECTION('center_axis',(4.93038065763132E-32,1.16774872027068E-46,
-1.));
#619=DIRECTION('ref_axis',(-1.,-1.3739009929736E-15,-4.93038065763132E-32));
#620=DIRECTION('',(1.,1.3739009929736E-15,4.93038065763132E-32));
#621=DIRECTION('center_axis',(-4.93038065763132E-32,-1.25115934314716E-46,
1.));
#622=DIRECTION('ref_axis',(1.,1.3739009929736E-15,4.93038065763132E-32));
#623=DIRECTION('',(-2.53765262771464E-15,1.,0.));
#624=DIRECTION('center_axis',(-2.53765262771464E-16,-6.0103688016839E-31,
1.));
#625=DIRECTION('ref_axis',(1.,1.3739009929736E-15,2.53765262771464E-16));
#626=DIRECTION('',(-1.,-1.3739009929736E-15,-2.53765262771464E-16));
#627=DIRECTION('',(-2.368475785867E-15,1.,0.));
#628=DIRECTION('center_axis',(-2.368475785867E-15,1.,0.));
#629=DIRECTION('ref_axis',(1.,2.368475785867E-15,4.93038065763132E-32));
#630=DIRECTION('center_axis',(-1.3739009929736E-15,1.,-1.68268177169751E-16));
#631=DIRECTION('ref_axis',(1.,1.3739009929736E-15,4.93038065763132E-32));
#632=DIRECTION('',(-2.368475785867E-15,1.,0.));
#633=DIRECTION('center_axis',(2.368475785867E-15,-1.,0.));
#634=DIRECTION('ref_axis',(5.93347936750274E-15,0.,-1.));
#635=DIRECTION('center_axis',(2.368475785867E-15,-1.,0.));
#636=DIRECTION('ref_axis',(0.,0.,-1.));
#637=DIRECTION('center_axis',(-2.368475785867E-15,1.,0.));
#638=DIRECTION('ref_axis',(0.,0.,-1.));
#639=DIRECTION('center_axis',(-1.3739009929736E-15,1.,0.));
#640=DIRECTION('ref_axis',(0.,0.,1.));
#641=DIRECTION('center_axis',(-2.53765262771464E-16,-6.0103688016839E-31,
1.));
#642=DIRECTION('ref_axis',(1.,1.3739009929736E-15,2.53765262771464E-16));
#643=DIRECTION('',(-1.,-1.3739009929736E-15,-2.53765262771464E-16));
#644=DIRECTION('center_axis',(2.53765262771464E-16,6.43968085894703E-31,
-1.));
#645=DIRECTION('ref_axis',(-1.,-1.3739009929736E-15,-2.53765262771464E-16));
#646=DIRECTION('',(-2.53765262771464E-15,1.,0.));
#647=DIRECTION('center_axis',(0.,1.,0.));
#648=DIRECTION('ref_axis',(1.,1.94436748059176E-15,1.49134816824568E-31));
#649=DIRECTION('center_axis',(-1.3739009929736E-15,1.,-1.68268177169751E-16));
#650=DIRECTION('ref_axis',(1.,1.3739009929736E-15,2.45126172832505E-31));
#651=DIRECTION('',(0.70710678118654,-0.707106781186555,-8.65956056235484E-17));
#652=DIRECTION('center_axis',(-2.45014736469E-15,1.,0.));
#653=DIRECTION('ref_axis',(1.,2.45014736469E-15,4.93038065763132E-32));
#654=DIRECTION('center_axis',(1.3739009929736E-15,-1.,1.68268177169751E-16));
#655=DIRECTION('ref_axis',(1.,1.3739009929736E-15,4.93038065763132E-32));
#656=DIRECTION('center_axis',(1.3739009929736E-15,-1.,1.68268177169751E-16));
#657=DIRECTION('ref_axis',(1.,1.37390099297361E-15,3.62146077015347E-14));
#658=DIRECTION('center_axis',(1.3739009929736E-15,-1.,1.68268177169751E-16));
#659=DIRECTION('ref_axis',(-1.,-1.3739009929736E-15,3.62146077015346E-14));
#660=DIRECTION('center_axis',(-1.3739009929736E-15,1.,-1.68268177169751E-16));
#661=DIRECTION('ref_axis',(1.,1.40628249785853E-15,3.62146077015347E-14));
#662=DIRECTION('center_axis',(-1.3739009929736E-15,1.,-1.68268177169751E-16));
#663=DIRECTION('ref_axis',(-1.,-1.40628249785853E-15,3.62146077015346E-14));
#664=DIRECTION('center_axis',(-1.3739009929736E-15,1.,-1.68268177169751E-16));
#665=DIRECTION('ref_axis',(-1.,-1.40628249785853E-15,3.62146077015346E-14));
#666=DIRECTION('center_axis',(-2.53765262771464E-15,1.,0.));
#667=DIRECTION('ref_axis',(1.,2.53765262771464E-15,4.93038065763132E-32));
#668=DIRECTION('',(2.53765262771464E-15,-1.,0.));
#669=DIRECTION('center_axis',(1.3739009929736E-15,-1.,1.68268177169751E-16));
#670=DIRECTION('ref_axis',(1.,1.3739009929736E-15,4.93038065763132E-32));
#671=DIRECTION('',(-2.53765262771464E-15,1.,0.));
#672=DIRECTION('',(-2.53765262771464E-15,1.,0.));
#673=DIRECTION('center_axis',(2.53765262771464E-16,6.43968085894703E-31,
-1.));
#674=DIRECTION('ref_axis',(-1.,-1.3739009929736E-15,-2.53765262771464E-16));
#675=DIRECTION('center_axis',(-4.93038065763132E-32,-1.25115934314716E-46,
1.));
#676=DIRECTION('ref_axis',(1.,1.3739009929736E-15,4.93038065763132E-32));
#677=DIRECTION('center_axis',(4.93038065763132E-32,0.,-1.));
#678=DIRECTION('ref_axis',(-1.,-1.3739009929736E-15,-4.93038065763132E-32));
#679=DIRECTION('',(1.,1.3739009929736E-15,4.93038065763132E-32));
#680=DIRECTION('',(2.45014736469E-15,-1.,0.));
#681=DIRECTION('',(-1.,0.,-4.93038065763132E-32));
#682=DIRECTION('',(-2.45014736469E-15,1.,0.));
#683=DIRECTION('center_axis',(0.,1.,0.));
#684=DIRECTION('ref_axis',(-1.,0.,0.));
#685=DIRECTION('center_axis',(0.,1.,0.));
#686=DIRECTION('ref_axis',(-1.,0.,0.));
#687=DIRECTION('center_axis',(-2.45014736469E-15,1.,0.));
#688=DIRECTION('ref_axis',(2.83276944882399E-16,8.45208112736795E-31,-1.));
#689=DIRECTION('center_axis',(-1.3739009929736E-15,1.,-1.68268177169751E-16));
#690=DIRECTION('ref_axis',(1.,1.3739009929736E-15,4.93038065763132E-32));
#691=DIRECTION('center_axis',(-1.3739009929736E-15,1.,-1.68268177169751E-16));
#692=DIRECTION('ref_axis',(0.,0.,1.));
#693=DIRECTION('center_axis',(1.3739009929736E-15,-1.,1.68268177169751E-16));
#694=DIRECTION('ref_axis',(1.,1.3739009929736E-15,8.41340885848757E-18));
#695=DIRECTION('center_axis',(-1.,-1.3739009929736E-15,0.));
#696=DIRECTION('ref_axis',(0.,0.,-1.));
#697=DIRECTION('center_axis',(-1.3739009929736E-15,1.,-1.68268177169751E-16));
#698=DIRECTION('ref_axis',(1.,1.37390099297363E-15,8.41340885848757E-18));
#699=DIRECTION('center_axis',(-1.3739009929736E-15,1.,-1.68268177169751E-16));
#700=DIRECTION('ref_axis',(1.,1.37390099297363E-15,8.41340885848757E-18));
#701=DIRECTION('center_axis',(-2.45014736469E-15,1.,0.));
#702=DIRECTION('ref_axis',(1.,2.45014736469E-15,4.93038065763132E-32));
#703=DIRECTION('',(2.45014736469E-15,-1.,0.));
#704=DIRECTION('center_axis',(1.3739009929736E-15,-1.,1.68268177169751E-16));
#705=DIRECTION('ref_axis',(1.,1.3739009929736E-15,4.93038065763132E-32));
#706=DIRECTION('center_axis',(-1.3739009929736E-15,1.,-1.68268177169751E-16));
#707=DIRECTION('ref_axis',(-1.,0.,0.));
#708=DIRECTION('center_axis',(1.3739009929736E-15,-1.,1.68268177169751E-16));
#709=DIRECTION('ref_axis',(1.,1.3739009929736E-15,4.93038065763132E-32));
#710=DIRECTION('center_axis',(0.,1.,0.));
#711=DIRECTION('ref_axis',(0.,0.,1.));
#712=DIRECTION('center_axis',(0.,-1.,0.));
#713=DIRECTION('ref_axis',(-1.,0.,0.));
#714=DIRECTION('center_axis',(-1.,0.,0.));
#715=DIRECTION('ref_axis',(0.,0.,-1.));
#716=DIRECTION('center_axis',(0.,1.,0.));
#717=DIRECTION('ref_axis',(-1.,0.,0.));
#718=DIRECTION('center_axis',(0.,1.,0.));
#719=DIRECTION('ref_axis',(-1.,0.,0.));
#720=DIRECTION('center_axis',(0.,1.,0.));
#721=DIRECTION('ref_axis',(-1.,0.,0.));
#722=DIRECTION('',(0.,-1.,0.));
#723=DIRECTION('center_axis',(0.,1.,0.));
#724=DIRECTION('ref_axis',(-1.,0.,0.));
#725=DIRECTION('',(-2.31183815699379E-31,1.,1.68268177169751E-16));
#726=DIRECTION('',(1.,-3.3968589394126E-32,1.3739009929736E-15));
#727=DIRECTION('',(-2.31183815699379E-31,1.,1.68268177169751E-16));
#728=DIRECTION('',(1.,-3.3968589394126E-32,1.3739009929736E-15));
#729=DIRECTION('',(-2.31183815699379E-31,1.,1.68268177169751E-16));
#730=DIRECTION('',(1.,-3.3968589394126E-32,1.3739009929736E-15));
#731=DIRECTION('',(-2.31183815699379E-31,1.,1.68268177169751E-16));
#732=DIRECTION('',(1.,-3.3968589394126E-32,1.3739009929736E-15));
#733=CARTESIAN_POINT('',(0.,0.,0.));
#734=CARTESIAN_POINT('',(0.,0.,0.));
#735=CARTESIAN_POINT('',(0.,0.,0.));
#736=CARTESIAN_POINT('',(0.,0.,0.));
#737=CARTESIAN_POINT('',(0.,0.,0.));
#738=CARTESIAN_POINT('Origin',(216.102963127915,20.6949999999943,77.2116750131482));
#739=CARTESIAN_POINT('',(207.596825036774,34.6949999999943,77.2116750131482));
#740=CARTESIAN_POINT('',(211.420167853938,33.7885959813368,77.2116750131482));
#741=CARTESIAN_POINT('Ctrl Pts',(207.596825036774,34.6949999999943,77.2116750131482));
#742=CARTESIAN_POINT('Ctrl Pts',(208.12210464298,34.6949999999943,77.2116750131482));
#743=CARTESIAN_POINT('Ctrl Pts',(208.695794408465,34.6432656914935,77.2116750131482));
#744=CARTESIAN_POINT('Ctrl Pts',(209.819348329382,34.4199746263467,77.2116750131482));
#745=CARTESIAN_POINT('Ctrl Pts',(210.369211839285,34.2484146215577,77.2116750131482));
#746=CARTESIAN_POINT('Ctrl Pts',(211.040439733183,33.9704606339036,77.2116750131482));
#747=CARTESIAN_POINT('Ctrl Pts',(211.23019237009,33.8840843743807,77.2116750131482));
#748=CARTESIAN_POINT('Ctrl Pts',(211.420167853938,33.7885959813368,77.2116750131482));
#749=CARTESIAN_POINT('',(207.3463912173,34.6949999999943,77.2116750131482));
#750=CARTESIAN_POINT('',(218.607651360592,34.6949999999943,77.2116750131482));
#751=CARTESIAN_POINT('',(207.3463912173,35.0375690614225,77.2116750131482));
#752=CARTESIAN_POINT('',(207.3463912173,20.6949999999943,77.2116750131482));
#753=CARTESIAN_POINT('',(207.995177514963,35.5152474605085,77.2116750131538));
#754=CARTESIAN_POINT('Ctrl Pts',(207.995177514954,35.5152474604795,77.2116750131482));
#755=CARTESIAN_POINT('Ctrl Pts',(207.947449135865,35.5299861545647,77.2116750131482));
#756=CARTESIAN_POINT('Ctrl Pts',(207.894086028568,35.5375690614225,77.2116750131482));
#757=CARTESIAN_POINT('Ctrl Pts',(207.78539044868,35.5375690614225,77.2116750131482));
#758=CARTESIAN_POINT('Ctrl Pts',(207.712609743833,35.5231081256965,77.2116750131482));
#759=CARTESIAN_POINT('Ctrl Pts',(207.598375463052,35.475836974334,77.2116750131482));
#760=CARTESIAN_POINT('Ctrl Pts',(207.536697117897,35.4346770791487,77.2116750131482));
#761=CARTESIAN_POINT('Ctrl Pts',(207.449307411785,35.347380476398,77.2116750131482));
#762=CARTESIAN_POINT('Ctrl Pts',(207.40811505522,35.2858146511257,77.2116750131482));
#763=CARTESIAN_POINT('Ctrl Pts',(207.360848311393,35.1718234872846,77.2116750131482));
#764=CARTESIAN_POINT('Ctrl Pts',(207.3463912173,35.0992418944116,77.2116750131482));
#765=CARTESIAN_POINT('Ctrl Pts',(207.3463912173,35.0375690614225,77.2116750131482));
#766=CARTESIAN_POINT('Ctrl Pts',(211.420167853938,33.7885959813368,77.2116750131482));
#767=CARTESIAN_POINT('Ctrl Pts',(211.279608756478,33.8920399450205,77.2116750131482));
#768=CARTESIAN_POINT('Ctrl Pts',(211.13610503155,33.9927039763462,77.2116750131482));
#769=CARTESIAN_POINT('Ctrl Pts',(210.346932951094,34.5197260056353,77.2116750131482));
#770=CARTESIAN_POINT('Ctrl Pts',(209.657661654187,34.8808147557131,77.2116750131482));
#771=CARTESIAN_POINT('Ctrl Pts',(208.68410778865,35.2838803020375,77.2116750131482));
#772=CARTESIAN_POINT('Ctrl Pts',(208.345940548279,35.406930581771,77.2116750131482));
#773=CARTESIAN_POINT('Ctrl Pts',(207.995177514954,35.5152474604795,77.2116750131482));
#774=CARTESIAN_POINT('Origin',(201.107651360566,20.6949999999943,76.8366750131477));
#775=CARTESIAN_POINT('',(194.868911503832,34.6949999999943,77.2116750131482));
#776=CARTESIAN_POINT('Origin',(201.107651360566,34.6949999999943,76.8366750131477));
#777=CARTESIAN_POINT('',(194.868911503832,35.0375690614225,77.2116750131482));
#778=CARTESIAN_POINT('',(194.868911503832,20.6949999999943,77.2116750131482));
#779=CARTESIAN_POINT('Origin',(201.107651360566,35.0375690614225,76.8366750131477));
#780=CARTESIAN_POINT('Origin',(201.107651360566,35.0375690614225,76.8366750131477));
#781=CARTESIAN_POINT('',(194.220125206169,35.5152474605085,77.2116750131538));
#782=CARTESIAN_POINT('Ctrl Pts',(194.868911503832,35.0375690614225,77.2116750131482));
#783=CARTESIAN_POINT('Ctrl Pts',(194.868911503832,35.0992418944116,77.2116750131482));
#784=CARTESIAN_POINT('Ctrl Pts',(194.854454409738,35.1718234872846,77.2116750131482));
#785=CARTESIAN_POINT('Ctrl Pts',(194.807187665912,35.2858146511257,77.2116750131482));
#786=CARTESIAN_POINT('Ctrl Pts',(194.765995309346,35.347380476398,77.2116750131482));
#787=CARTESIAN_POINT('Ctrl Pts',(194.678605603235,35.4346770791487,77.2116750131482));
#788=CARTESIAN_POINT('Ctrl Pts',(194.616927258079,35.475836974334,77.2116750131482));
#789=CARTESIAN_POINT('Ctrl Pts',(194.502692977298,35.5231081256965,77.2116750131482));
#790=CARTESIAN_POINT('Ctrl Pts',(194.429912272451,35.5375690614225,77.2116750131482));
#791=CARTESIAN_POINT('Ctrl Pts',(194.321216692564,35.5375690614225,77.2116750131482));
#792=CARTESIAN_POINT('Ctrl Pts',(194.267853585266,35.5299861545646,77.2116750131482));
#793=CARTESIAN_POINT('Ctrl Pts',(194.220125206178,35.5152474604795,77.2116750131482));
#794=CARTESIAN_POINT('Origin',(201.107651360566,35.5152474604449,76.8366750131477));
#795=CARTESIAN_POINT('Ctrl Pts',(194.212079964632,35.5152474604795,77.0091181949633));
#796=CARTESIAN_POINT('Ctrl Pts',(194.380264632825,35.5152474604795,83.7344022857629));
#797=CARTESIAN_POINT('Ctrl Pts',(201.107651360566,35.5152474604795,83.7344022857629));
#798=CARTESIAN_POINT('Ctrl Pts',(207.835038088306,35.5152474604795,83.7344022857629));
#799=CARTESIAN_POINT('Ctrl Pts',(208.0032227565,35.5152474604795,77.0091181949633));
#800=CARTESIAN_POINT('Ctrl Pts',(186.112339593217,33.0095309463654,77.2116750131482));
#801=CARTESIAN_POINT('Ctrl Pts',(186.478078904616,33.0095309463654,91.8366750131477));
#802=CARTESIAN_POINT('Ctrl Pts',(201.107651360566,33.0095309463655,91.8366750131477));
#803=CARTESIAN_POINT('Ctrl Pts',(215.737223816516,33.0095309463655,91.8366750131477));
#804=CARTESIAN_POINT('Ctrl Pts',(216.102963127915,33.0095309463655,77.2116750131482));
#805=CARTESIAN_POINT('Ctrl Pts',(186.112339593217,24.5286442829306,77.2116750131482));
#806=CARTESIAN_POINT('Ctrl Pts',(186.478078904616,24.5286442829306,91.8366750131477));
#807=CARTESIAN_POINT('Ctrl Pts',(201.107651360566,24.5286442829306,91.8366750131477));
#808=CARTESIAN_POINT('Ctrl Pts',(215.737223816516,24.5286442829307,91.8366750131477));
#809=CARTESIAN_POINT('Ctrl Pts',(216.102963127915,24.5286442829307,77.2116750131482));
#810=CARTESIAN_POINT('',(190.795134867193,33.7885959813367,77.2116750131482));
#811=CARTESIAN_POINT('Ctrl Pts',(194.220125206178,35.5152474604795,77.2116750131482));
#812=CARTESIAN_POINT('Ctrl Pts',(193.869362172853,35.406930581771,77.2116750131482));
#813=CARTESIAN_POINT('Ctrl Pts',(193.531194932482,35.2838803020374,77.2116750131482));
#814=CARTESIAN_POINT('Ctrl Pts',(192.557641066944,34.8808147557131,77.2116750131482));
#815=CARTESIAN_POINT('Ctrl Pts',(191.868369770037,34.5197260056353,77.2116750131482));
#816=CARTESIAN_POINT('Ctrl Pts',(191.079197689582,33.9927039763462,77.2116750131482));
#817=CARTESIAN_POINT('Ctrl Pts',(190.935693964653,33.8920399450204,77.2116750131482));
#818=CARTESIAN_POINT('Ctrl Pts',(190.795134867193,33.7885959813367,77.2116750131482));
#819=CARTESIAN_POINT('',(186.112339593217,24.5286442829306,77.2116750131482));
#820=CARTESIAN_POINT('Ctrl Pts',(186.112339593217,24.5286442829306,77.2116750131482));
#821=CARTESIAN_POINT('Ctrl Pts',(186.112339593217,25.2382757345554,77.2116750131482));
#822=CARTESIAN_POINT('Ctrl Pts',(186.182375889281,26.0132815753498,77.2116750131482));
#823=CARTESIAN_POINT('Ctrl Pts',(186.484379831536,27.5310730700978,77.2116750131482));
#824=CARTESIAN_POINT('Ctrl Pts',(186.716347382722,28.2738587429547,77.2116750131482));
#825=CARTESIAN_POINT('Ctrl Pts',(187.259672419748,29.5851211354049,77.2116750131482));
#826=CARTESIAN_POINT('Ctrl Pts',(187.621102705375,30.2743881775092,77.2116750131482));
#827=CARTESIAN_POINT('Ctrl Pts',(188.481255879988,31.5611484163853,77.2116750131482));
#828=CARTESIAN_POINT('Ctrl Pts',(188.979978449601,32.1586418266469,77.2116750131482));
#829=CARTESIAN_POINT('Ctrl Pts',(189.870191089009,33.0483917114877,77.2116750131482));
#830=CARTESIAN_POINT('Ctrl Pts',(190.315062157642,33.4352881924426,77.2116750131482));
#831=CARTESIAN_POINT('Ctrl Pts',(190.795134867194,33.7885959813367,77.2116750131482));
#832=CARTESIAN_POINT('',(216.102963127915,24.5286442829307,77.2116750131482));
#833=CARTESIAN_POINT('Origin',(201.107651360566,24.5286442829306,76.8366750131477));
#834=CARTESIAN_POINT('Ctrl Pts',(211.420167853938,33.7885959813368,77.2116750131482));
#835=CARTESIAN_POINT('Ctrl Pts',(211.90024056349,33.4352881924427,77.2116750131482));
#836=CARTESIAN_POINT('Ctrl Pts',(212.345111632122,33.0483917114878,77.2116750131482));
#837=CARTESIAN_POINT('Ctrl Pts',(213.235324271531,32.158641826647,77.2116750131482));
#838=CARTESIAN_POINT('Ctrl Pts',(213.734046841144,31.5611484163854,77.2116750131482));
#839=CARTESIAN_POINT('Ctrl Pts',(214.594200015757,30.2743881775092,77.2116750131482));
#840=CARTESIAN_POINT('Ctrl Pts',(214.955630301383,29.5851211354049,77.2116750131482));
#841=CARTESIAN_POINT('Ctrl Pts',(215.498955338409,28.2738587429548,77.2116750131482));
#842=CARTESIAN_POINT('Ctrl Pts',(215.730922889595,27.5310730700978,77.2116750131482));
#843=CARTESIAN_POINT('Ctrl Pts',(216.03292683185,26.0132815753498,77.2116750131482));
#844=CARTESIAN_POINT('Ctrl Pts',(216.102963127915,25.2382757345554,77.2116750131482));
#845=CARTESIAN_POINT('Ctrl Pts',(216.102963127915,24.5286442829307,77.2116750131482));
#846=CARTESIAN_POINT('Origin',(194.868911503832,20.6949999999943,77.2116750131482));
#847=CARTESIAN_POINT('',(194.618477684357,34.6949999999943,77.2116750131482));
#848=CARTESIAN_POINT('Ctrl Pts',(190.795134867194,33.7885959813368,77.2116750131482));
#849=CARTESIAN_POINT('Ctrl Pts',(190.985110351042,33.8840843743807,77.2116750131482));
#850=CARTESIAN_POINT('Ctrl Pts',(191.174862987948,33.9704606339036,77.2116750131482));
#851=CARTESIAN_POINT('Ctrl Pts',(191.846090881846,34.2484146215577,77.2116750131482));
#852=CARTESIAN_POINT('Ctrl Pts',(192.39595439175,34.4199746263467,77.2116750131482));
#853=CARTESIAN_POINT('Ctrl Pts',(193.519508312666,34.6432656914935,77.2116750131482));
#854=CARTESIAN_POINT('Ctrl Pts',(194.093198078152,34.6949999999943,77.2116750131482));
#855=CARTESIAN_POINT('Ctrl Pts',(194.618477684357,34.6949999999943,77.2116750131482));
#856=CARTESIAN_POINT('',(218.607651360592,34.6949999999943,77.2116750131482));
#857=CARTESIAN_POINT('Origin',(186.112339593217,20.6949999999943,77.2116750131482));
#858=CARTESIAN_POINT('',(186.112339593217,26.1949999999943,77.2116750131482));
#859=CARTESIAN_POINT('Ctrl Pts',(186.112339593217,26.1949999999943,77.2116750131482));
#860=CARTESIAN_POINT('Ctrl Pts',(186.112339593217,26.7194093717334,77.2116750131482));
#861=CARTESIAN_POINT('Ctrl Pts',(186.164085732686,27.2921312389034,77.2116750131482));
#862=CARTESIAN_POINT('Ctrl Pts',(186.387221515251,28.413773833161,77.2116750131482));
#863=CARTESIAN_POINT('Ctrl Pts',(186.558611017013,28.962694588365,77.2116750131482));
#864=CARTESIAN_POINT('Ctrl Pts',(186.960047046385,29.9317364957326,77.2116750131482));
#865=CARTESIAN_POINT('Ctrl Pts',(187.227091855942,30.4411265388496,77.2116750131482));
#866=CARTESIAN_POINT('Ctrl Pts',(187.862623949258,31.3921156055927,77.2116750131482));
#867=CARTESIAN_POINT('Ctrl Pts',(188.231110792196,31.8337149238136,77.2116750131482));
#868=CARTESIAN_POINT('Ctrl Pts',(188.973055406477,32.5755364481903,77.2116750131482));
#869=CARTESIAN_POINT('Ctrl Pts',(189.414894156822,32.9440724305307,77.2116750131482));
#870=CARTESIAN_POINT('Ctrl Pts',(190.18392075704,33.4577803904596,77.2116750131482));
#871=CARTESIAN_POINT('Ctrl Pts',(190.489747471739,33.6350974821772,77.2116750131482));
#872=CARTESIAN_POINT('Ctrl Pts',(190.795134867194,33.7885959813368,77.2116750131482));
#873=CARTESIAN_POINT('',(186.112339593217,20.6949999999943,77.2116750131482));
#874=CARTESIAN_POINT('Origin',(186.112339593217,20.6949999999943,76.4616750131482));
#875=CARTESIAN_POINT('',(194.618477684357,34.6949999999943,76.4616750131482));
#876=CARTESIAN_POINT('',(190.795134867194,33.7885959813368,76.4616750131482));
#877=CARTESIAN_POINT('Ctrl Pts',(194.618477684357,34.6949999999943,76.4616750131482));
#878=CARTESIAN_POINT('Ctrl Pts',(194.093198078152,34.6949999999943,76.4616750131482));
#879=CARTESIAN_POINT('Ctrl Pts',(193.519508312666,34.6432656914935,76.4616750131482));
#880=CARTESIAN_POINT('Ctrl Pts',(192.39595439175,34.4199746263467,76.4616750131482));
#881=CARTESIAN_POINT('Ctrl Pts',(191.846090881846,34.2484146215577,76.4616750131482));
#882=CARTESIAN_POINT('Ctrl Pts',(191.174862987948,33.9704606339035,76.4616750131482));
#883=CARTESIAN_POINT('Ctrl Pts',(190.985110351042,33.8840843743807,76.4616750131482));
#884=CARTESIAN_POINT('Ctrl Pts',(190.795134867194,33.7885959813367,76.4616750131482));
#885=CARTESIAN_POINT('',(194.868911503832,34.6949999999943,76.4616750131482));
#886=CARTESIAN_POINT('',(183.607651360592,34.6949999999943,76.4616750131482));
#887=CARTESIAN_POINT('',(194.868911503832,35.0375690614225,76.4616750131482));
#888=CARTESIAN_POINT('',(194.868911503832,20.6949999999943,76.4616750131482));
#889=CARTESIAN_POINT('',(194.220125206169,35.5152474605087,76.4616750131426));
#890=CARTESIAN_POINT('Ctrl Pts',(194.220125206178,35.5152474604796,76.4616750131482));
#891=CARTESIAN_POINT('Ctrl Pts',(194.267853585266,35.5299861545647,76.4616750131482));
#892=CARTESIAN_POINT('Ctrl Pts',(194.321216692564,35.5375690614225,76.4616750131482));
#893=CARTESIAN_POINT('Ctrl Pts',(194.429912272451,35.5375690614225,76.4616750131482));
#894=CARTESIAN_POINT('Ctrl Pts',(194.502692977298,35.5231081256965,76.4616750131482));
#895=CARTESIAN_POINT('Ctrl Pts',(194.616927258079,35.475836974334,76.4616750131482));
#896=CARTESIAN_POINT('Ctrl Pts',(194.678605603235,35.4346770791487,76.4616750131482));
#897=CARTESIAN_POINT('Ctrl Pts',(194.765995309346,35.347380476398,76.4616750131482));
#898=CARTESIAN_POINT('Ctrl Pts',(194.807187665912,35.2858146511257,76.4616750131482));
#899=CARTESIAN_POINT('Ctrl Pts',(194.854454409738,35.1718234872846,76.4616750131482));
#900=CARTESIAN_POINT('Ctrl Pts',(194.868911503832,35.0992418944116,76.4616750131482));
#901=CARTESIAN_POINT('Ctrl Pts',(194.868911503832,35.0375690614225,76.4616750131482));
#902=CARTESIAN_POINT('Ctrl Pts',(190.795134867194,33.7885959813368,76.4616750131482));
#903=CARTESIAN_POINT('Ctrl Pts',(190.935088170947,33.8915941133148,76.4616750131482));
#904=CARTESIAN_POINT('Ctrl Pts',(191.07795767179,33.9918340782,76.4616750131482));
#905=CARTESIAN_POINT('Ctrl Pts',(191.866606386642,34.5187323238542,76.4616750131482));
#906=CARTESIAN_POINT('Ctrl Pts',(192.556051344053,34.8800551004186,76.4616750131482));
#907=CARTESIAN_POINT('Ctrl Pts',(193.530216558417,35.2835243453432,76.4616750131482));
#908=CARTESIAN_POINT('Ctrl Pts',(193.868860463978,35.4067756522769,76.4616750131482));
#909=CARTESIAN_POINT('Ctrl Pts',(194.220125206178,35.5152474604796,76.4616750131482));
#910=CARTESIAN_POINT('Origin',(201.107651360566,20.6949999999943,76.8366750131477));
#911=CARTESIAN_POINT('',(207.3463912173,34.6949999999943,76.4616750131482));
#912=CARTESIAN_POINT('Origin',(201.107651360566,34.6949999999943,76.8366750131477));
#913=CARTESIAN_POINT('',(207.3463912173,35.0375690614225,76.4616750131482));
#914=CARTESIAN_POINT('',(207.3463912173,20.6949999999943,76.4616750131482));
#915=CARTESIAN_POINT('Origin',(201.107651360566,35.0375690614225,76.8366750131477));
#916=CARTESIAN_POINT('Origin',(201.107651360566,35.0375690614225,76.8366750131477));
#917=CARTESIAN_POINT('',(207.995177514962,35.5152474605087,76.4616750131426));
#918=CARTESIAN_POINT('Ctrl Pts',(207.3463912173,35.0375690614225,76.4616750131482));
#919=CARTESIAN_POINT('Ctrl Pts',(207.3463912173,35.0992418944116,76.4616750131482));
#920=CARTESIAN_POINT('Ctrl Pts',(207.360848311393,35.1718234872846,76.4616750131482));
#921=CARTESIAN_POINT('Ctrl Pts',(207.40811505522,35.2858146511257,76.4616750131482));
#922=CARTESIAN_POINT('Ctrl Pts',(207.449307411785,35.347380476398,76.4616750131482));
#923=CARTESIAN_POINT('Ctrl Pts',(207.536697117897,35.4346770791487,76.4616750131482));
#924=CARTESIAN_POINT('Ctrl Pts',(207.598375463052,35.475836974334,76.4616750131482));
#925=CARTESIAN_POINT('Ctrl Pts',(207.712609743833,35.5231081256965,76.4616750131482));
#926=CARTESIAN_POINT('Ctrl Pts',(207.78539044868,35.5375690614225,76.4616750131482));
#927=CARTESIAN_POINT('Ctrl Pts',(207.894086028567,35.5375690614225,76.4616750131482));
#928=CARTESIAN_POINT('Ctrl Pts',(207.947449135865,35.5299861545647,76.4616750131482));
#929=CARTESIAN_POINT('Ctrl Pts',(207.995177514953,35.5152474604797,76.4616750131482));
#930=CARTESIAN_POINT('Origin',(201.107651360566,35.5152474604449,76.8366750131477));
#931=CARTESIAN_POINT('Ctrl Pts',(208.003222756499,35.5152474604796,76.6642318313326));
#932=CARTESIAN_POINT('Ctrl Pts',(207.835038088306,35.5152474604796,69.9389477405329));
#933=CARTESIAN_POINT('Ctrl Pts',(201.107651360566,35.5152474604796,69.9389477405329));
#934=CARTESIAN_POINT('Ctrl Pts',(194.380264632825,35.5152474604796,69.9389477405329));
#935=CARTESIAN_POINT('Ctrl Pts',(194.212079964632,35.5152474604796,76.6642318313326));
#936=CARTESIAN_POINT('Ctrl Pts',(216.102963127915,33.0095309463658,76.4616750131482));
#937=CARTESIAN_POINT('Ctrl Pts',(215.737223816517,33.0095309463658,61.8366750131477));
#938=CARTESIAN_POINT('Ctrl Pts',(201.107651360566,33.0095309463658,61.8366750131477));
#939=CARTESIAN_POINT('Ctrl Pts',(186.478078904615,33.0095309463658,61.8366750131477));
#940=CARTESIAN_POINT('Ctrl Pts',(186.112339593217,33.0095309463658,76.4616750131482));
#941=CARTESIAN_POINT('Ctrl Pts',(216.102963127915,24.5286442829307,76.4616750131482));
#942=CARTESIAN_POINT('Ctrl Pts',(215.737223816517,24.5286442829307,61.8366750131477));
#943=CARTESIAN_POINT('Ctrl Pts',(201.107651360566,24.5286442829306,61.8366750131477));
#944=CARTESIAN_POINT('Ctrl Pts',(186.478078904615,24.5286442829306,61.8366750131477));
#945=CARTESIAN_POINT('Ctrl Pts',(186.112339593217,24.5286442829306,76.4616750131482));
#946=CARTESIAN_POINT('',(211.420167853938,33.7885959813369,76.4616750131482));
#947=CARTESIAN_POINT('Ctrl Pts',(207.995177514953,35.5152474604796,76.4616750131482));
#948=CARTESIAN_POINT('Ctrl Pts',(208.346442257153,35.4067756522769,76.4616750131482));
#949=CARTESIAN_POINT('Ctrl Pts',(208.685086162715,35.2835243453432,76.4616750131482));
#950=CARTESIAN_POINT('Ctrl Pts',(209.659251377079,34.8800551004186,76.4616750131482));
#951=CARTESIAN_POINT('Ctrl Pts',(210.348696334489,34.5187323238542,76.4616750131482));
#952=CARTESIAN_POINT('Ctrl Pts',(211.137345049341,33.9918340782,76.4616750131482));
#953=CARTESIAN_POINT('Ctrl Pts',(211.280214550185,33.8915941133149,76.4616750131482));
#954=CARTESIAN_POINT('Ctrl Pts',(211.420167853938,33.7885959813369,76.4616750131482));
#955=CARTESIAN_POINT('',(216.102963127915,24.5286442829307,76.4616750131482));
#956=CARTESIAN_POINT('Ctrl Pts',(216.102963127915,24.5286442829307,76.4616750131482));
#957=CARTESIAN_POINT('Ctrl Pts',(216.102963127915,25.2380347083341,76.4616750131482));
#958=CARTESIAN_POINT('Ctrl Pts',(216.032974357033,26.0127811461061,76.4616750131482));
#959=CARTESIAN_POINT('Ctrl Pts',(215.731171292291,27.5300859882048,76.4616750131482));
#960=CARTESIAN_POINT('Ctrl Pts',(215.499357093351,28.2726444114117,76.4616750131482));
#961=CARTESIAN_POINT('Ctrl Pts',(214.95638955897,29.583532989755,76.4616750131482));
#962=CARTESIAN_POINT('Ctrl Pts',(214.595193456837,30.2726261196423,76.4616750131482));
#963=CARTESIAN_POINT('Ctrl Pts',(213.735582052868,31.5591268843552,76.4616750131482));
#964=CARTESIAN_POINT('Ctrl Pts',(213.237167070161,32.1565347324161,76.4616750131482));
#965=CARTESIAN_POINT('Ctrl Pts',(212.346695956294,33.0470127641274,76.4616750131482));
#966=CARTESIAN_POINT('Ctrl Pts',(211.90107749074,33.4346722588342,76.4616750131482));
#967=CARTESIAN_POINT('Ctrl Pts',(211.420167853938,33.7885959813369,76.4616750131482));
#968=CARTESIAN_POINT('',(186.112339593217,24.5286442829306,76.4616750131482));
#969=CARTESIAN_POINT('Origin',(201.107651360566,24.5286442829306,76.8366750131477));
#970=CARTESIAN_POINT('Ctrl Pts',(190.795134867194,33.7885959813368,76.4616750131482));
#971=CARTESIAN_POINT('Ctrl Pts',(190.314225230391,33.4346722588341,76.4616750131482));
#972=CARTESIAN_POINT('Ctrl Pts',(189.868606764837,33.0470127641274,76.4616750131482));
#973=CARTESIAN_POINT('Ctrl Pts',(188.97813565097,32.156534732416,76.4616750131482));
#974=CARTESIAN_POINT('Ctrl Pts',(188.479720668264,31.5591268843552,76.4616750131482));
#975=CARTESIAN_POINT('Ctrl Pts',(187.620109264295,30.2726261196422,76.4616750131482));
#976=CARTESIAN_POINT('Ctrl Pts',(187.258913162161,29.583532989755,76.4616750131482));
#977=CARTESIAN_POINT('Ctrl Pts',(186.71594562778,28.2726444114116,76.4616750131482));
#978=CARTESIAN_POINT('Ctrl Pts',(186.48413142884,27.5300859882047,76.4616750131482));
#979=CARTESIAN_POINT('Ctrl Pts',(186.182328364098,26.0127811461061,76.4616750131482));
#980=CARTESIAN_POINT('Ctrl Pts',(186.112339593217,25.2380347083341,76.4616750131482));
#981=CARTESIAN_POINT('Ctrl Pts',(186.112339593217,24.5286442829306,76.4616750131482));
#982=CARTESIAN_POINT('Origin',(207.3463912173,20.6949999999943,76.4616750131482));
#983=CARTESIAN_POINT('',(207.596825036775,34.6949999999943,76.4616750131482));
#984=CARTESIAN_POINT('Ctrl Pts',(211.420167853938,33.7885959813368,76.4616750131482));
#985=CARTESIAN_POINT('Ctrl Pts',(211.23019237009,33.8840843743807,76.4616750131482));
#986=CARTESIAN_POINT('Ctrl Pts',(211.040439733183,33.9704606339036,76.4616750131482));
#987=CARTESIAN_POINT('Ctrl Pts',(210.369211839285,34.2484146215577,76.4616750131482));
#988=CARTESIAN_POINT('Ctrl Pts',(209.819348329382,34.4199746263467,76.4616750131482));
#989=CARTESIAN_POINT('Ctrl Pts',(208.695794408465,34.6432656914935,76.4616750131482));
#990=CARTESIAN_POINT('Ctrl Pts',(208.12210464298,34.6949999999943,76.4616750131482));
#991=CARTESIAN_POINT('Ctrl Pts',(207.596825036775,34.6949999999943,76.4616750131482));
#992=CARTESIAN_POINT('',(183.607651360592,34.6949999999943,76.4616750131482));
#993=CARTESIAN_POINT('Origin',(216.102963127915,20.6949999999943,76.4616750131482));
#994=CARTESIAN_POINT('',(216.102963127915,26.1949999999943,76.4616750131482));
#995=CARTESIAN_POINT('Ctrl Pts',(216.102963127915,26.1949999999943,76.4616750131482));
#996=CARTESIAN_POINT('Ctrl Pts',(216.102963127915,26.7194093717335,76.4616750131482));
#997=CARTESIAN_POINT('Ctrl Pts',(216.051216988446,27.2921312389034,76.4616750131482));
#998=CARTESIAN_POINT('Ctrl Pts',(215.828081205881,28.413773833161,76.4616750131482));
#999=CARTESIAN_POINT('Ctrl Pts',(215.656691704119,28.962694588365,76.4616750131482));
#1000=CARTESIAN_POINT('Ctrl Pts',(215.255255674747,29.9317364957327,76.4616750131482));
#1001=CARTESIAN_POINT('Ctrl Pts',(214.98821086519,30.4411265388496,76.4616750131482));
#1002=CARTESIAN_POINT('Ctrl Pts',(214.352678771874,31.3921156055927,76.4616750131482));
#1003=CARTESIAN_POINT('Ctrl Pts',(213.984191928935,31.8337149238137,76.4616750131482));
#1004=CARTESIAN_POINT('Ctrl Pts',(213.242247314654,32.5755364481903,76.4616750131482));
#1005=CARTESIAN_POINT('Ctrl Pts',(212.80040856431,32.9440724305308,76.4616750131482));
#1006=CARTESIAN_POINT('Ctrl Pts',(212.031381964091,33.4577803904596,76.4616750131482));
#1007=CARTESIAN_POINT('Ctrl Pts',(211.725555249392,33.6350974821772,76.4616750131482));
#1008=CARTESIAN_POINT('Ctrl Pts',(211.420167853938,33.7885959813368,76.4616750131482));
#1009=CARTESIAN_POINT('',(216.102963127915,20.6949999999943,76.4616750131482));
#1010=CARTESIAN_POINT('Origin',(201.107651360566,34.5949999999943,76.8366750131477));
#1011=CARTESIAN_POINT('',(195.907651360566,34.6949999999943,76.8366750131477));
#1012=CARTESIAN_POINT('Origin',(201.107651360566,34.6949999999943,76.8366750131477));
#1013=CARTESIAN_POINT('',(196.107651360566,34.4949999999943,76.8366750131477));
#1014=CARTESIAN_POINT('',(196.007651360566,34.5949999999943,76.8366750131477));
#1015=CARTESIAN_POINT('Origin',(201.107651360566,34.4949999999943,76.8366750131477));
#1016=CARTESIAN_POINT('Origin',(201.107651360566,34.6949999999943,76.8366750131477));
#1017=CARTESIAN_POINT('Origin',(201.107651360566,34.6949999999943,76.8366750131477));
#1018=CARTESIAN_POINT('Origin',(201.107651360566,34.6949999999943,76.8366750131477));
#1019=CARTESIAN_POINT('Ctrl Pts',(216.082667536432,26.1949999999943,77.7020596285335));
#1020=CARTESIAN_POINT('Ctrl Pts',(216.132676866889,26.1949999999943,76.8366750131477));
#1021=CARTESIAN_POINT('Ctrl Pts',(216.082667536432,26.1949999999943,75.9712903977643));
#1022=CARTESIAN_POINT('Ctrl Pts',(216.082667536432,34.6949999999943,77.7020596285335));
#1023=CARTESIAN_POINT('Ctrl Pts',(216.132676866889,34.6949999999943,76.8366750131477));
#1024=CARTESIAN_POINT('Ctrl Pts',(216.082667536432,34.6949999999943,75.9712903977643));
#1025=CARTESIAN_POINT('Ctrl Pts',(207.596825036774,34.6949999999943,77.2116750131482));
#1026=CARTESIAN_POINT('Ctrl Pts',(207.618495746639,34.6949999999943,76.8366750131477));
#1027=CARTESIAN_POINT('Ctrl Pts',(207.596825036774,34.6949999999943,76.4616750131482));
#1028=CARTESIAN_POINT('',(216.102963127915,26.1949999999943,77.2116750131482));
#1029=CARTESIAN_POINT('Ctrl Pts',(211.420167853938,33.7885959813368,77.2116750131482));
#1030=CARTESIAN_POINT('Ctrl Pts',(211.725555249392,33.6350974821772,77.2116750131482));
#1031=CARTESIAN_POINT('Ctrl Pts',(212.031381964091,33.4577803904596,77.2116750131482));
#1032=CARTESIAN_POINT('Ctrl Pts',(212.80040856431,32.9440724305308,77.2116750131482));
#1033=CARTESIAN_POINT('Ctrl Pts',(213.242247314654,32.5755364481903,77.2116750131482));
#1034=CARTESIAN_POINT('Ctrl Pts',(213.984191928935,31.8337149238137,77.2116750131482));
#1035=CARTESIAN_POINT('Ctrl Pts',(214.352678771873,31.3921156055928,77.2116750131482));
#1036=CARTESIAN_POINT('Ctrl Pts',(214.98821086519,30.4411265388496,77.2116750131482));
#1037=CARTESIAN_POINT('Ctrl Pts',(215.255255674747,29.9317364957326,77.2116750131482));
#1038=CARTESIAN_POINT('Ctrl Pts',(215.656691704119,28.962694588365,77.2116750131482));
#1039=CARTESIAN_POINT('Ctrl Pts',(215.828081205881,28.413773833161,77.2116750131482));
#1040=CARTESIAN_POINT('Ctrl Pts',(216.051216988446,27.2921312389034,77.2116750131482));
#1041=CARTESIAN_POINT('Ctrl Pts',(216.102963127915,26.7194093717335,77.2116750131482));
#1042=CARTESIAN_POINT('Ctrl Pts',(216.102963127915,26.1949999999943,77.2116750131482));
#1043=CARTESIAN_POINT('Origin',(201.107651360566,26.1949999999943,76.8366750131477));
#1044=CARTESIAN_POINT('Ctrl Pts',(186.132635184699,26.1949999999942,75.9712903977643));
#1045=CARTESIAN_POINT('Ctrl Pts',(186.082625854242,26.1949999999942,76.8366750131477));
#1046=CARTESIAN_POINT('Ctrl Pts',(186.1326351847,26.1949999999942,77.7020596285335));
#1047=CARTESIAN_POINT('Ctrl Pts',(186.132635184699,34.6949999999943,75.9712903977643));
#1048=CARTESIAN_POINT('Ctrl Pts',(186.082625854242,34.6949999999943,76.8366750131477));
#1049=CARTESIAN_POINT('Ctrl Pts',(186.1326351847,34.6949999999943,77.7020596285335));
#1050=CARTESIAN_POINT('Ctrl Pts',(194.618477684357,34.6949999999943,76.4616750131482));
#1051=CARTESIAN_POINT('Ctrl Pts',(194.596806974492,34.6949999999943,76.8366750131477));
#1052=CARTESIAN_POINT('Ctrl Pts',(194.618477684357,34.6949999999943,77.2116750131482));
#1053=CARTESIAN_POINT('',(186.112339593217,26.1949999999943,76.4616750131482));
#1054=CARTESIAN_POINT('Ctrl Pts',(190.795134867194,33.7885959813367,76.4616750131482));
#1055=CARTESIAN_POINT('Ctrl Pts',(190.489747471739,33.6350974821771,76.4616750131482));
#1056=CARTESIAN_POINT('Ctrl Pts',(190.18392075704,33.4577803904595,76.4616750131482));
#1057=CARTESIAN_POINT('Ctrl Pts',(189.414894156822,32.9440724305307,76.4616750131482));
#1058=CARTESIAN_POINT('Ctrl Pts',(188.973055406477,32.5755364481903,76.4616750131482));
#1059=CARTESIAN_POINT('Ctrl Pts',(188.231110792196,31.8337149238136,76.4616750131482));
#1060=CARTESIAN_POINT('Ctrl Pts',(187.862623949258,31.3921156055927,76.4616750131482));
#1061=CARTESIAN_POINT('Ctrl Pts',(187.227091855942,30.4411265388495,76.4616750131482));
#1062=CARTESIAN_POINT('Ctrl Pts',(186.960047046385,29.9317364957326,76.4616750131482));
#1063=CARTESIAN_POINT('Ctrl Pts',(186.558611017013,28.962694588365,76.4616750131482));
#1064=CARTESIAN_POINT('Ctrl Pts',(186.387221515251,28.413773833161,76.4616750131482));
#1065=CARTESIAN_POINT('Ctrl Pts',(186.164085732686,27.2921312389033,76.4616750131482));
#1066=CARTESIAN_POINT('Ctrl Pts',(186.112339593217,26.7194093717334,76.4616750131482));
#1067=CARTESIAN_POINT('Ctrl Pts',(186.112339593217,26.1949999999943,76.4616750131482));
#1068=CARTESIAN_POINT('',(186.107651360566,26.1949999999943,76.8366750131477));
#1069=CARTESIAN_POINT('Origin',(201.107651360566,26.1949999999943,76.8366750131477));
#1070=CARTESIAN_POINT('Origin',(201.107651360566,26.1949999999943,76.8366750131477));
#1071=CARTESIAN_POINT('Origin',(201.107651360566,20.6949999999943,76.8366750131477));
#1072=CARTESIAN_POINT('',(186.107651360566,20.6949999999942,76.8366750131477));
#1073=CARTESIAN_POINT('',(186.107651360566,20.6949999999943,76.8366750131477));
#1074=CARTESIAN_POINT('Origin',(201.107651360566,20.6949999999943,76.8366750131477));
#1075=CARTESIAN_POINT('',(186.112339593217,20.6949999999943,76.4616750131482));
#1076=CARTESIAN_POINT('',(216.102963127915,20.6949999999943,77.2116750131482));
#1077=CARTESIAN_POINT('Origin',(194.868911503832,20.6949999999943,76.4616750131482));
#1078=CARTESIAN_POINT('Origin',(207.3463912173,20.6949999999943,77.2116750131482));
#1079=CARTESIAN_POINT('Origin',(203.557141103349,20.6949999999943,79.3366750131477));
#1080=CARTESIAN_POINT('',(198.658161617783,20.6949999999943,79.3366750131477));
#1081=CARTESIAN_POINT('',(203.557141103349,20.6949999999943,79.3366750131477));
#1082=CARTESIAN_POINT('',(199.030995394836,20.6949999999943,79.3366750131477));
#1083=CARTESIAN_POINT('',(198.658161617783,28.6949999999943,79.3366750131477));
#1084=CARTESIAN_POINT('',(198.658161617783,20.6949999999943,79.3366750131477));
#1085=CARTESIAN_POINT('',(203.557141103349,28.6949999999943,79.3366750131477));
#1086=CARTESIAN_POINT('',(202.332396231957,28.6949999999943,79.3366750131477));
#1087=CARTESIAN_POINT('',(203.557141103349,20.6949999999943,79.3366750131477));
#1088=CARTESIAN_POINT('Origin',(201.107651360566,28.6949999999943,76.8366750131477));
#1089=CARTESIAN_POINT('Origin',(201.107651360566,28.6949999999943,76.8366750131477));
#1090=CARTESIAN_POINT('Origin',(201.107651360566,20.6949999999943,76.8366750131477));
#1091=CARTESIAN_POINT('Origin',(201.107651360566,20.6949999999943,76.8366750131477));
#1092=CARTESIAN_POINT('Origin',(201.107651360566,34.9449999999943,76.8366750131477));
#1093=CARTESIAN_POINT('',(201.107651360566,35.1949999999943,72.0866750131477));
#1094=CARTESIAN_POINT('Origin',(201.107651360566,35.1949999999943,76.8366750131477));
#1095=CARTESIAN_POINT('',(201.107651360566,34.9449999999943,71.8366750131477));
#1096=CARTESIAN_POINT('Origin',(201.107651360566,34.9449999999943,72.0866750131477));
#1097=CARTESIAN_POINT('',(196.107651360566,34.9449999999943,76.8366750131477));
#1098=CARTESIAN_POINT('Origin',(201.107651360566,34.9449999999943,76.8366750131477));
#1099=CARTESIAN_POINT('Origin',(201.107651360566,34.9449999999943,76.8366750131477));
#1100=CARTESIAN_POINT('Origin',(201.107651360566,20.6949999999943,76.8366750131477));
#1101=CARTESIAN_POINT('',(196.107651360566,20.6949999999943,76.8366750131477));
#1102=CARTESIAN_POINT('Origin',(201.107651360566,35.1949999999943,76.8366750131477));
#1103=CARTESIAN_POINT('',(204.607651360566,35.1949999999943,76.8366750131477));
#1104=CARTESIAN_POINT('Origin',(201.107651360566,35.1949999999943,76.8366750131477));
#1105=CARTESIAN_POINT('Origin',(201.107651360566,20.6949999999943,76.8366750131477));
#1106=CARTESIAN_POINT('Origin',(201.107651360566,35.6949999999943,76.8366750131477));
#1107=CARTESIAN_POINT('',(201.107651360566,36.6949999999943,74.3366750131477));
#1108=CARTESIAN_POINT('Origin',(201.107651360566,36.6949999999943,76.8366750131477));
#1109=CARTESIAN_POINT('',(201.107651360566,35.6949999999943,73.3366750131477));
#1110=CARTESIAN_POINT('Origin',(201.107651360566,35.6949999999943,74.3366750131477));
#1111=CARTESIAN_POINT('',(204.607651360566,35.6949999999943,76.8366750131477));
#1112=CARTESIAN_POINT('Origin',(201.107651360566,35.6949999999943,76.8366750131477));
#1113=CARTESIAN_POINT('Origin',(201.107651360566,35.6949999999943,76.8366750131477));
#1114=CARTESIAN_POINT('Origin',(201.107651360566,28.6949999999943,76.8366750131477));
#1115=CARTESIAN_POINT('',(204.607651360566,28.6949999999943,76.8366750131477));
#1116=CARTESIAN_POINT('Origin',(201.107651360566,36.6949999999943,76.8366750131477));
#1117=CARTESIAN_POINT('',(-201.107651360566,-76.8366750131477,20.694999999994));
#1118=CARTESIAN_POINT('',(-201.107651360566,-76.8366750131477,20.694999999994));
#1119=CARTESIAN_POINT('',(-201.107651360566,-76.8366750131477,20.694999999994));
#1120=CARTESIAN_POINT('',(-201.107651360566,-76.8366750131477,20.694999999994));
#1121=UNCERTAINTY_MEASURE_WITH_UNIT(LENGTH_MEASURE(0.01),#1133,
'DISTANCE_ACCURACY_VALUE',
'Maximum model space distance between geometric entities at asserted c
onnectivities');
#1122=UNCERTAINTY_MEASURE_WITH_UNIT(LENGTH_MEASURE(0.01),#1133,
'DISTANCE_ACCURACY_VALUE',
'Maximum model space distance between geometric entities at asserted c
onnectivities');
#1123=UNCERTAINTY_MEASURE_WITH_UNIT(LENGTH_MEASURE(0.01),#1133,
'DISTANCE_ACCURACY_VALUE',
'Maximum model space distance between geometric entities at asserted c
onnectivities');
#1124=UNCERTAINTY_MEASURE_WITH_UNIT(LENGTH_MEASURE(0.01),#1133,
'DISTANCE_ACCURACY_VALUE',
'Maximum model space distance between geometric entities at asserted c
onnectivities');
#1125=UNCERTAINTY_MEASURE_WITH_UNIT(LENGTH_MEASURE(0.01),#1133,
'DISTANCE_ACCURACY_VALUE',
'Maximum model space distance between geometric entities at asserted c
onnectivities');
#1126=UNCERTAINTY_MEASURE_WITH_UNIT(LENGTH_MEASURE(0.01),#1133,
'DISTANCE_ACCURACY_VALUE',
'Maximum model space distance between geometric entities at asserted c
onnectivities');
#1127=(
GEOMETRIC_REPRESENTATION_CONTEXT(3)
GLOBAL_UNCERTAINTY_ASSIGNED_CONTEXT((#1121))
GLOBAL_UNIT_ASSIGNED_CONTEXT((#1133,#1135,#1136))
REPRESENTATION_CONTEXT('','3D')
);
#1128=(
GEOMETRIC_REPRESENTATION_CONTEXT(3)
GLOBAL_UNCERTAINTY_ASSIGNED_CONTEXT((#1122))
GLOBAL_UNIT_ASSIGNED_CONTEXT((#1133,#1135,#1136))
REPRESENTATION_CONTEXT('','3D')
);
#1129=(
GEOMETRIC_REPRESENTATION_CONTEXT(3)
GLOBAL_UNCERTAINTY_ASSIGNED_CONTEXT((#1123))
GLOBAL_UNIT_ASSIGNED_CONTEXT((#1133,#1135,#1136))
REPRESENTATION_CONTEXT('','3D')
);
#1130=(
GEOMETRIC_REPRESENTATION_CONTEXT(3)
GLOBAL_UNCERTAINTY_ASSIGNED_CONTEXT((#1124))
GLOBAL_UNIT_ASSIGNED_CONTEXT((#1133,#1135,#1136))
REPRESENTATION_CONTEXT('','3D')
);
#1131=(
GEOMETRIC_REPRESENTATION_CONTEXT(3)
GLOBAL_UNCERTAINTY_ASSIGNED_CONTEXT((#1125))
GLOBAL_UNIT_ASSIGNED_CONTEXT((#1133,#1135,#1136))
REPRESENTATION_CONTEXT('','3D')
);
#1132=(
GEOMETRIC_REPRESENTATION_CONTEXT(3)
GLOBAL_UNCERTAINTY_ASSIGNED_CONTEXT((#1126))
GLOBAL_UNIT_ASSIGNED_CONTEXT((#1133,#1135,#1136))
REPRESENTATION_CONTEXT('','3D')
);
#1133=(
LENGTH_UNIT()
NAMED_UNIT(*)
SI_UNIT(.MILLI.,.METRE.)
);
#1134=(
LENGTH_UNIT()
NAMED_UNIT(*)
SI_UNIT($,.METRE.)
);
#1135=(
NAMED_UNIT(*)
PLANE_ANGLE_UNIT()
SI_UNIT($,.RADIAN.)
);
#1136=(
NAMED_UNIT(*)
SI_UNIT($,.STERADIAN.)
SOLID_ANGLE_UNIT()
);
#1137=SHAPE_DEFINITION_REPRESENTATION(#1142,#1151);
#1138=SHAPE_DEFINITION_REPRESENTATION(#1143,#1152);
#1139=SHAPE_DEFINITION_REPRESENTATION(#1144,#1153);
#1140=SHAPE_DEFINITION_REPRESENTATION(#1145,#1154);
#1141=SHAPE_DEFINITION_REPRESENTATION(#1146,#1155);
#1142=PRODUCT_DEFINITION_SHAPE('',$,#1157);
#1143=PRODUCT_DEFINITION_SHAPE('',$,#1158);
#1144=PRODUCT_DEFINITION_SHAPE('',$,#1159);
#1145=PRODUCT_DEFINITION_SHAPE('',$,#1160);
#1146=PRODUCT_DEFINITION_SHAPE('',$,#1161);
#1147=PRODUCT_DEFINITION_SHAPE($,$,#23);
#1148=PRODUCT_DEFINITION_SHAPE($,$,#24);
#1149=PRODUCT_DEFINITION_SHAPE($,$,#25);
#1150=PRODUCT_DEFINITION_SHAPE($,$,#26);
#1151=SHAPE_REPRESENTATION('',(#530,#587,#588,#589,#590),#1127);
#1152=SHAPE_REPRESENTATION('',(#531),#1128);
#1153=SHAPE_REPRESENTATION('',(#532),#1129);
#1154=SHAPE_REPRESENTATION('',(#533),#1130);
#1155=SHAPE_REPRESENTATION('',(#534),#1131);
#1156=PRODUCT_DEFINITION_CONTEXT('part definition',#1173,'design');
#1157=PRODUCT_DEFINITION('poke-knob','poke-knob',#1162,#1156);
#1158=PRODUCT_DEFINITION('Component6','Component6',#1163,#1156);
#1159=PRODUCT_DEFINITION('Component5','Component5',#1164,#1156);
#1160=PRODUCT_DEFINITION('Component3','Component3',#1165,#1156);
#1161=PRODUCT_DEFINITION('Component4','Component4',#1166,#1156);
#1162=PRODUCT_DEFINITION_FORMATION('',$,#1175);
#1163=PRODUCT_DEFINITION_FORMATION('',$,#1176);
#1164=PRODUCT_DEFINITION_FORMATION('',$,#1177);
#1165=PRODUCT_DEFINITION_FORMATION('',$,#1178);
#1166=PRODUCT_DEFINITION_FORMATION('',$,#1179);
#1167=PRODUCT_RELATED_PRODUCT_CATEGORY('poke-knob','poke-knob',(#1175));
#1168=PRODUCT_RELATED_PRODUCT_CATEGORY('Component6','Component6',(#1176));
#1169=PRODUCT_RELATED_PRODUCT_CATEGORY('Component5','Component5',(#1177));
#1170=PRODUCT_RELATED_PRODUCT_CATEGORY('Component3','Component3',(#1178));
#1171=PRODUCT_RELATED_PRODUCT_CATEGORY('Component4','Component4',(#1179));
#1172=APPLICATION_PROTOCOL_DEFINITION('international standard',
'automotive_design',2009,#1173);
#1173=APPLICATION_CONTEXT(
'Core Data for Automotive Mechanical Design Process');
#1174=PRODUCT_CONTEXT('part definition',#1173,'mechanical');
#1175=PRODUCT('poke-knob','poke-knob',$,(#1174));
#1176=PRODUCT('Component6','Component6',$,(#1174));
#1177=PRODUCT('Component5','Component5',$,(#1174));
#1178=PRODUCT('Component3','Component3',$,(#1174));
#1179=PRODUCT('Component4','Component4',$,(#1174));
#1180=PRESENTATION_STYLE_ASSIGNMENT((#1182));
#1181=PRESENTATION_STYLE_ASSIGNMENT((#1183));
#1182=SURFACE_STYLE_USAGE(.BOTH.,#1184);
#1183=SURFACE_STYLE_USAGE(.BOTH.,#1185);
#1184=SURFACE_SIDE_STYLE('',(#1186));
#1185=SURFACE_SIDE_STYLE('',(#1187));
#1186=SURFACE_STYLE_FILL_AREA(#1188);
#1187=SURFACE_STYLE_FILL_AREA(#1189);
#1188=FILL_AREA_STYLE('Steel - Satin',(#1190));
#1189=FILL_AREA_STYLE('Wax (White)',(#1191));
#1190=FILL_AREA_STYLE_COLOUR('Steel - Satin',#1192);
#1191=FILL_AREA_STYLE_COLOUR('Wax (White)',#1193);
#1192=COLOUR_RGB('Steel - Satin',0.627450980392157,0.627450980392157,0.627450980392157);
#1193=COLOUR_RGB('Wax (White)',0.952941176470588,0.952941176470588,0.952941176470588);
ENDSEC;
END-ISO-10303-21;
